<svg width="94" height="82" viewBox="0 0 94 82" fill="none" xmlns="http://www.w3.org/2000/svg">
    <path
        d="M43.6943 3.76194C44.3735 -1.25398 51.6265 -1.25398 52.3058 3.76194C52.8444 7.73945 58.0268 8.92228 60.2379 5.57239C63.0262 1.34793 69.5609 4.49486 67.9965 9.30878C66.7561 13.1261 70.912 16.4403 74.3576 14.3815C78.7027 11.7853 83.2248 17.4558 79.7268 21.1143C76.9529 24.0154 79.2592 28.8046 83.2569 28.4446C88.2982 27.9908 89.9121 35.0618 85.1731 36.8402C81.4152 38.2505 81.4152 43.5661 85.1731 44.9763C89.9121 46.7547 88.2982 53.8258 83.2569 53.3719C79.2592 53.012 76.9529 57.8012 79.7268 60.7023C83.2248 64.3607 78.7027 70.0313 74.3576 67.435C70.912 65.3762 66.7561 68.6904 67.9965 72.5078C69.5609 77.3217 63.0262 80.4686 60.2379 76.2442C58.0268 72.8943 52.8444 74.0771 52.3058 78.0546C51.6265 83.0705 44.3735 83.0705 43.6943 78.0546C43.1556 74.0771 37.9733 72.8943 35.7622 76.2442C32.9738 80.4686 26.4392 77.3217 28.0035 72.5078C29.2439 68.6904 25.088 65.3762 21.6424 67.435C17.2973 70.0313 12.7752 64.3607 16.2732 60.7023C19.0471 57.8012 16.7408 53.012 12.7431 53.3719C7.70181 53.8258 6.08788 46.7547 10.8269 44.9763C14.5848 43.5661 14.5848 38.2505 10.8269 36.8402C6.08788 35.0618 7.70182 27.9908 12.7431 28.4446C16.7408 28.8046 19.0471 24.0154 16.2732 21.1143C12.7752 17.4558 17.2973 11.7853 21.6424 14.3815C25.088 16.4403 29.2439 13.1261 28.0035 9.30878C26.4392 4.49486 32.9738 1.34793 35.7622 5.57238C37.9733 8.92228 43.1556 7.73945 43.6943 3.76194Z"
        fill="#C4C4C4" />
    <path d="M15 50C11.0513 54.1642 2.72308 61.9077 1 59.5687" stroke="#222222" />
    <path d="M81 29.8027C85.6015 28.187 94.2901 24.5629 92.233 22.9924" stroke="#222222" />
    <path d="M38 36.3854C38.7179 38.4412 41.1231 41.2421 45 36" stroke="#222222"
        stroke-linecap="round" />
    <path d="M35.5 26.5V33.5" stroke="#222222" stroke-linecap="round" />
    <path d="M41 27V34" stroke="#222222" stroke-linecap="round" />
</svg>
