<svg width="147" height="147" viewBox="0 0 147 147" fill="none" xmlns="http://www.w3.org/2000/svg">
    <path
        d="M65.4649 6.74638C66.7107 -2.24879 80.0129 -2.24879 81.2588 6.74638C82.2467 13.8793 91.7513 16.0005 95.8066 9.9931C100.921 2.41728 112.905 8.06073 110.036 16.6937C107.761 23.5394 115.383 29.4829 121.703 25.7908C129.672 21.1348 137.966 31.3039 131.55 37.8648C126.463 43.0673 130.693 51.6559 138.025 51.0105C147.271 50.1965 150.231 62.8772 141.539 66.0665C134.647 68.5955 134.647 78.1281 141.539 80.6571C150.231 83.8464 147.271 96.5271 138.025 95.7131C130.693 95.0677 126.463 103.656 131.55 108.859C137.966 115.42 129.672 125.589 121.703 120.933C115.383 117.241 107.761 123.184 110.036 130.03C112.905 138.663 100.921 144.306 95.8066 136.731C91.7513 130.723 82.2467 132.844 81.2588 139.977C80.0129 148.972 66.7107 148.972 65.4649 139.977C64.477 132.844 54.9723 130.723 50.9171 136.731C45.8031 144.306 33.8183 138.663 36.6873 130.03C38.9623 123.184 31.3402 117.241 25.0208 120.933C17.0516 125.589 8.75788 115.42 15.1735 108.859C20.2609 103.656 16.031 95.0677 8.69912 95.7131C-0.546886 96.5271 -3.50691 83.8464 5.18464 80.6571C12.0768 78.1281 12.0768 68.5955 5.18464 66.0665C-3.50691 62.8772 -0.546882 50.1965 8.69912 51.0105C16.031 51.6559 20.2609 43.0673 15.1735 37.8648C8.75788 31.3039 17.0517 21.1348 25.0208 25.7908C31.3402 29.4829 38.9623 23.5394 36.6873 16.6937C33.8183 8.06074 45.8031 2.41728 50.9171 9.9931C54.9723 16.0005 64.477 13.8793 65.4649 6.74638Z"
        fill="#FFCD05" />
    <path d="M36.957 89.2179C41.8053 93.2102 52.1142 96.7034 54.5639 78.7383" stroke="black"
        stroke-width="2" stroke-linecap="round" />
    <path d="M35 69.9348V83.629" stroke="black" stroke-width="2" stroke-linecap="round" />
    <path d="M43.8047 67V80.6942" stroke="black" stroke-width="2" stroke-linecap="round" />
</svg>
