<svg width="200" height="189" viewBox="0 0 200 189" fill="none" xmlns="http://www.w3.org/2000/svg">
    <path
        d="M90.604 8.69025C92.2089 -2.89675 109.344 -2.89675 110.949 8.69025C112.221 17.8785 124.465 20.6109 129.688 12.8725C136.276 3.11379 151.714 10.3833 148.018 21.5037C145.088 30.3219 154.906 37.9779 163.046 33.222C173.312 27.2245 183.995 40.3237 175.731 48.775C169.178 55.4766 174.626 66.5399 184.071 65.7084C195.981 64.6599 199.794 80.9944 188.598 85.1026C179.72 88.3603 179.72 100.64 188.598 103.897C199.794 108.006 195.981 124.34 184.071 123.292C174.626 122.46 169.178 133.523 175.731 140.225C183.995 148.676 173.312 161.775 163.046 155.778C154.906 151.022 145.088 158.678 148.018 167.496C151.714 178.617 136.276 185.886 129.688 176.128C124.465 168.389 112.221 171.121 110.949 180.31C109.344 191.897 92.2089 191.897 90.604 180.31C89.3315 171.122 77.0882 168.389 71.8645 176.128C65.277 185.886 49.8389 178.617 53.5346 167.496C56.4651 158.678 46.6468 151.022 38.5066 155.778C28.2412 161.776 17.5577 148.676 25.8219 140.225C32.3752 133.523 26.9265 122.46 17.482 123.292C5.5719 124.34 1.759 108.006 12.9549 103.897C21.833 100.64 21.833 88.3603 12.9549 85.1026C1.75899 80.9944 5.57191 64.6599 17.482 65.7084C26.9265 66.5399 32.3752 55.4766 25.8219 48.775C17.5577 40.3237 28.2412 27.2245 38.5066 33.222C46.6468 37.9779 56.4651 30.3219 53.5346 21.5037C49.8389 10.3833 65.277 3.11379 71.8645 12.8725C77.0882 20.6109 89.3315 17.8785 90.604 8.69025Z"
        fill="#FFCD05" />
    <path d="M83.0059 71.4594C89.2511 76.602 102.53 81.1017 105.686 57.9602" stroke="black"
        stroke-width="2" stroke-linecap="round" />
    <path d="M80.4854 46.6201V64.2601" stroke="black" stroke-width="2" stroke-linecap="round" />
    <path d="M91.8262 42.8396V60.4796" stroke="black" stroke-width="2" stroke-linecap="round" />
    <path d="M16.3555 24.7799C17.8248 13.02 -8.37481 45.8171 28.3741 60.5185" stroke="black"
        stroke-width="2" stroke-linecap="round" />
    <path d="M175.116 124.74C182.956 125.426 198.636 130.503 198.636 145.32" stroke="black"
        stroke-width="2" stroke-linecap="round" />
</svg>
