<svg width="349" height="218" viewBox="0 0 349 218" fill="none" xmlns="http://www.w3.org/2000/svg">
<path d="M40.3375 203.234C55.5429 203.234 67.8693 190.907 67.8693 175.702C67.8693 160.496 55.5429 148.17 40.3375 148.17C25.1321 148.17 12.8057 160.496 12.8057 175.702C12.8057 190.907 25.1321 203.234 40.3375 203.234Z" fill="#FF6B9D"/>
<path d="M11.5252 169.939C6.38231 170.652 -0.468801 172.211 5.76282 174.728C12.1307 177.299 65.4148 180.184 72.3515 180.184C80.3318 180.184 80.1212 177.177 70.4303 174.728" stroke="#E2487C" stroke-width="1.28055" stroke-linecap="round"/>
<path d="M35.8555 160.522V165.495" stroke="#222222" stroke-width="1.28055"/>
<path d="M40.9775 159.694V164.666" stroke="#222222" stroke-width="1.28055"/>
<path d="M35.8555 167.153C37.1229 169.375 41.0518 172.716 46.6284 168.303" stroke="#222222" stroke-width="1.28055"/>
<g clip-path="url(#clip0_2513_3717)">
<path d="M116.498 172.528C130.437 166.326 136.709 149.997 130.507 136.058C124.304 122.119 107.976 115.847 94.0363 122.049C80.0969 128.252 73.8251 144.58 80.0278 158.52C86.2304 172.459 102.559 178.731 116.498 172.528Z" fill="#6BB5FF"/>
<path d="M94.8105 135.117L96.6275 139.201" stroke="#222222" stroke-width="1.15106"/>
<path d="M98.7158 132.565L100.533 136.649" stroke="#222222" stroke-width="1.15106"/>
<path d="M97.2344 140.562C99.0872 141.923 103.534 143.231 106.502 137.569" stroke="#222222" stroke-width="1.15106"/>
<rect x="75.5898" y="137.863" width="10.9904" height="6.69269" transform="rotate(-55.4665 75.5898 137.863)" fill="#ADD6FF"/>
<ellipse cx="84.0622" cy="137.054" rx="5.43453" ry="2.30211" transform="rotate(-55.4665 84.0622 137.054)" fill="#ADD6FF"/>
<ellipse cx="79.1758" cy="133.497" rx="6.90633" ry="2.30211" transform="rotate(-55.4665 79.1758 133.497)" fill="#6BB5FF"/>
<rect x="108.417" y="116.389" width="10.9379" height="6.67612" transform="rotate(8.78519 108.417 116.389)" fill="#ADD6FF"/>
<ellipse cx="112.732" cy="124.279" rx="5.43453" ry="2.30211" transform="rotate(8.78519 112.732 124.279)" fill="#ADD6FF"/>
<ellipse cx="113.517" cy="118.109" rx="6.53198" ry="2.30211" transform="rotate(8.78519 113.517 118.109)" fill="#6BB5FF"/>
</g>
<g clip-path="url(#clip1_2513_3717)">
<path d="M175.421 200.399C191.25 200.399 204.082 187.567 204.082 171.737C204.082 155.908 191.25 143.076 175.421 143.076C159.592 143.076 146.76 155.908 146.76 171.737C146.76 187.567 159.592 200.399 175.421 200.399Z" fill="#37CD9C"/>
<path d="M180.596 166.538V171.175" stroke="#222222" stroke-width="1.19422"/>
<path d="M185.372 165.767V170.404" stroke="#222222" stroke-width="1.19422"/>
<path d="M180.596 172.722C181.778 174.794 185.442 177.909 190.642 173.793" stroke="#222222" stroke-width="1.19422"/>
<path d="M176.615 150.241C178.594 150.241 180.198 148.637 180.198 146.659C180.198 144.68 178.594 143.076 176.615 143.076C174.636 143.076 173.032 144.68 173.032 146.659C173.032 148.637 174.636 150.241 176.615 150.241Z" fill="#64DCB5"/>
<path d="M188.557 163.378C190.536 163.378 192.14 161.774 192.14 159.796C192.14 157.817 190.536 156.213 188.557 156.213C186.579 156.213 184.975 157.817 184.975 159.796C184.975 161.774 186.579 163.378 188.557 163.378Z" fill="#64DCB5"/>
<path d="M159.896 163.378C161.875 163.378 163.479 161.774 163.479 159.796C163.479 157.817 161.875 156.213 159.896 156.213C157.917 156.213 156.313 157.817 156.313 159.796C156.313 161.774 157.917 163.378 159.896 163.378Z" fill="#64DCB5"/>
<path d="M147.954 175.321C149.932 175.321 151.536 173.717 151.536 171.738C151.536 169.759 149.932 168.155 147.954 168.155C145.975 168.155 144.371 169.759 144.371 171.738C144.371 173.717 145.975 175.321 147.954 175.321Z" fill="#64DCB5"/>
<path d="M174.227 176.514C176.206 176.514 177.81 174.91 177.81 172.931C177.81 170.953 176.206 169.349 174.227 169.349C172.249 169.349 170.645 170.953 170.645 172.931C170.645 174.91 172.249 176.514 174.227 176.514Z" fill="#64DCB5"/>
<path d="M202.888 175.321C204.867 175.321 206.471 173.717 206.471 171.738C206.471 169.759 204.867 168.155 202.888 168.155C200.91 168.155 199.306 169.759 199.306 171.738C199.306 173.717 200.91 175.321 202.888 175.321Z" fill="#64DCB5"/>
<path d="M188.557 188.456C190.536 188.456 192.14 186.852 192.14 184.874C192.14 182.895 190.536 181.291 188.557 181.291C186.579 181.291 184.975 182.895 184.975 184.874C184.975 186.852 186.579 188.456 188.557 188.456Z" fill="#64DCB5"/>
<path d="M162.285 188.456C164.263 188.456 165.867 186.852 165.867 184.874C165.867 182.895 164.263 181.291 162.285 181.291C160.306 181.291 158.702 182.895 158.702 184.874C158.702 186.852 160.306 188.456 162.285 188.456Z" fill="#64DCB5"/>
<path d="M175.422 198.01C177.4 198.01 179.004 196.406 179.004 194.427C179.004 192.449 177.4 190.845 175.422 190.845C173.443 190.845 171.839 192.449 171.839 194.427C171.839 196.406 173.443 198.01 175.422 198.01Z" fill="#64DCB5"/>
</g>
<path d="M246.526 167.248C260.21 167.248 271.303 156.155 271.303 142.472C271.303 128.788 260.21 117.695 246.526 117.695C232.843 117.695 221.75 128.788 221.75 142.472C221.75 156.155 232.843 167.248 246.526 167.248Z" fill="#AF97FF"/>
<path d="M246.527 111.797L253.68 122.415H239.375L246.527 111.797Z" fill="#AF97FF"/>
<path d="M246.527 174.328L239.375 163.71L253.68 163.71L246.527 174.328Z" fill="#AF97FF"/>
<path d="M279.562 143.652L268.944 150.805L268.944 136.5L279.562 143.652Z" fill="#AF97FF"/>
<path d="M214.672 142.473L225.29 149.625L225.29 135.32L214.672 142.473Z" fill="#AF97FF"/>
<path d="M246.527 118.876V167.249" stroke="#A187F6" stroke-width="1.17983"/>
<path d="M271.052 143.575L221.857 142.54" stroke="#A187F6" stroke-width="1.17983"/>
<path d="M242.987 129.077V133.658" stroke="#222222" stroke-width="1.17983"/>
<path d="M247.707 128.314V132.896" stroke="#222222" stroke-width="1.17983"/>
<path d="M242.987 135.186C244.155 137.233 247.775 140.31 252.913 136.244" stroke="#222222" stroke-width="1.17983"/>
<path d="M313.087 199.133C327.963 199.133 340.022 187.074 340.022 172.198C340.022 157.323 327.963 145.264 313.087 145.264C298.211 145.264 286.152 157.323 286.152 172.198C286.152 187.074 298.211 199.133 313.087 199.133Z" fill="#FF9C6C"/>
<mask id="mask0_2513_3717" style="mask-type:alpha" maskUnits="userSpaceOnUse" x="286" y="145" width="55" height="55">
<path d="M313.087 199.133C327.963 199.133 340.022 187.074 340.022 172.198C340.022 157.323 327.963 145.264 313.087 145.264C298.211 145.264 286.152 157.323 286.152 172.198C286.152 187.074 298.211 199.133 313.087 199.133Z" fill="#FF9C6C"/>
</mask>
<g mask="url(#mask0_2513_3717)">
<path d="M283.907 176.688L317.576 200.816" stroke="#F18652" stroke-width="6.73367" stroke-linecap="round" stroke-linejoin="round"/>
<path d="M287.274 160.976L329.921 192.399" stroke="#F18652" stroke-width="6.73367" stroke-linecap="round" stroke-linejoin="round"/>
<path d="M294.008 146.386L338.899 178.932" stroke="#F18652" stroke-width="6.73367" stroke-linecap="round" stroke-linejoin="round"/>
<path d="M311.965 141.896L341.144 162.098" stroke="#F18652" stroke-width="6.73367" stroke-linecap="round" stroke-linejoin="round"/>
<path d="M317.576 167.312V171.67" stroke="#222222" stroke-width="1.12228"/>
<path d="M322.065 166.587V170.945" stroke="#222222" stroke-width="1.12228"/>
<path d="M317.576 173.123C318.687 175.07 322.13 177.998 327.018 174.13" stroke="#222222" stroke-width="1.12228"/>
</g>
<path d="M165.606 42.0755C166.784 34.5564 177.611 34.5564 178.789 42.0755C179.685 47.7935 186.938 49.7369 190.573 45.2329C195.353 39.3102 204.729 44.7237 201.99 51.8244C199.907 57.2242 205.216 62.5339 210.616 60.4507C217.717 57.7113 223.13 67.0879 217.208 71.8675C212.704 75.5023 214.647 82.7554 220.365 83.6512C227.884 84.8291 227.884 95.6563 220.365 96.8343C214.647 97.7301 212.704 104.983 217.208 108.618C223.13 113.398 217.717 122.774 210.616 120.035C205.216 117.952 199.907 123.261 201.99 128.661C204.729 135.762 195.353 141.175 190.573 135.253C186.938 130.749 179.685 132.692 178.789 138.41C177.611 145.929 166.784 145.929 165.606 138.41C164.711 132.692 157.457 130.749 153.823 135.253C149.043 141.175 139.666 135.762 142.406 128.661C144.489 123.261 139.179 117.952 133.78 120.035C126.679 122.774 121.265 113.398 127.188 108.618C131.692 104.983 129.749 97.7301 124.031 96.8343C116.511 95.6563 116.511 84.8291 124.031 83.6512C129.749 82.7554 131.692 75.5023 127.188 71.8675C121.265 67.0879 126.679 57.7113 133.78 60.4507C139.179 62.5339 144.489 57.2242 142.406 51.8244C139.666 44.7237 149.043 39.3102 153.823 45.2329C157.457 49.7369 164.711 47.7935 165.606 42.0755Z" fill="#FFCD05"/>
<path d="M154.149 70.8574C154.372 72.64 155.486 75.1356 158.16 70.8574" stroke="black" stroke-width="1.33693"/>
<path d="M162.171 70.8574C162.394 72.64 163.508 75.1356 166.182 70.8574" stroke="black" stroke-width="1.33693"/>
<path d="M156.824 76.8741C160.389 79.5479 168.054 82.7565 170.194 74.2002" stroke="black" stroke-width="1.33693"/>
<path d="M121.396 94.2531C114.043 90.688 99.8713 82.7555 102.01 79.5469" stroke="black" stroke-width="1.33693"/>
<path d="M198.268 88.9053C208.072 91.1335 228.081 96.9269 229.685 102.275" stroke="black" stroke-width="1.33693"/>
<path d="M142.785 135.03C140.111 130.573 133.962 124.334 130.753 135.03" stroke="black" stroke-width="1.33693"/>
<path d="M196.262 137.704C197.821 142.161 202.278 150.405 207.626 147.731" stroke="black" stroke-width="1.33693"/>
<defs>
<clipPath id="clip0_2513_3717">
<rect width="73.6675" height="73.6675" fill="white" transform="translate(56.1719 127.559) rotate(-23.9878)"/>
</clipPath>
<clipPath id="clip1_2513_3717">
<rect width="57.3226" height="57.3226" fill="white" transform="translate(146.76 143.076)"/>
</clipPath>
</defs>
</svg>
