<svg width="263" height="163" viewBox="0 0 263 163" fill="none" xmlns="http://www.w3.org/2000/svg">
    <ellipse cx="131.5" cy="137" rx="131.5" ry="26" fill="#222222" />
    <path
        d="M124.599 7.33933C125.846 -1.8645 139.154 -1.8645 140.401 7.33932C141.389 14.6377 150.898 16.8082 154.956 10.6614C160.072 2.90981 172.062 8.68417 169.192 17.5173C166.916 24.5219 174.542 30.6032 180.864 26.8255C188.837 22.0615 197.135 32.4665 190.716 39.1796C185.626 44.5028 189.858 53.2906 197.194 52.6302C206.444 51.7973 209.406 64.7722 200.71 68.0355C193.814 70.6231 193.814 80.3769 200.71 82.9645C209.406 86.2278 206.444 99.2027 197.194 98.3698C189.858 97.7094 185.626 106.497 190.716 111.82C197.135 118.533 188.837 128.938 180.864 124.175C174.542 120.397 166.916 126.478 169.192 133.483C172.062 142.316 160.072 148.09 154.956 140.339C150.898 134.192 141.389 136.362 140.401 143.661C139.154 152.865 125.846 152.865 124.599 143.661C123.611 136.362 114.102 134.192 110.044 140.339C104.928 148.09 92.9375 142.316 95.8079 133.483C98.084 126.478 90.4583 120.397 84.1359 124.175C76.1629 128.939 67.8651 118.533 74.2838 111.82C79.3737 106.497 75.1417 97.7094 67.8063 98.3698C58.5559 99.2027 55.5945 86.2278 64.2902 82.9645C71.1857 80.3769 71.1857 70.6231 64.2902 68.0355C55.5945 64.7722 58.5559 51.7973 67.8063 52.6302C75.1417 53.2906 79.3737 44.5028 74.2838 39.1796C67.8651 32.4665 76.1629 22.0615 84.1359 26.8255C90.4583 30.6032 98.084 24.5219 95.8079 17.5173C92.9375 8.68418 104.928 2.90981 110.044 10.6614C114.102 16.8082 123.611 14.6377 124.599 7.33933Z"
        fill="#FFCD05" />
    <path d="M129 37.2454C127.5 40.0787 122.9 44.0454 116.5 37.2454" stroke="black" />
    <path d="M125 25V33.5" stroke="black" />
    <path d="M117 25V33.5" stroke="black" />
</svg>
