<svg width="360" height="156" viewBox="0 0 360 156" fill="none" xmlns="http://www.w3.org/2000/svg">
    <ellipse cx="90" cy="113" rx="19" ry="9" fill="white" />
    <ellipse cx="109" cy="56.5" rx="30" ry="17.5" fill="white" />
    <ellipse cx="240" cy="131.5" rx="30" ry="17.5" fill="white" />
    <ellipse cx="344" cy="56.5" rx="30" ry="17.5" fill="white" />
    <ellipse cx="258" cy="60" rx="18" ry="9" fill="white" />
    <ellipse cx="323" cy="117" rx="17" ry="9" fill="white" />
    <path
        d="M172.83 7.14877C174.121 -2.38293 187.904 -2.38292 189.195 7.14877C190.219 14.7072 200.067 16.9549 204.268 10.5892C209.567 2.56159 221.985 8.54162 219.013 17.6895C216.655 24.9436 224.553 31.2416 231.1 27.3294C239.358 22.3958 247.951 33.1715 241.304 40.1238C236.033 45.6368 240.415 54.7376 248.012 54.0538C257.592 53.1914 260.659 66.6284 251.653 70.0081C244.512 72.6881 244.512 82.7892 251.653 85.4692C260.659 88.8489 257.592 102.286 248.012 101.424C240.415 100.74 236.033 109.841 241.304 115.354C247.951 122.306 239.358 133.081 231.1 128.148C224.553 124.236 216.655 130.534 219.013 137.788C221.985 146.936 209.567 152.916 204.268 144.888C200.067 138.522 190.219 140.77 189.195 148.329C187.904 157.86 174.121 157.86 172.83 148.329C171.807 140.77 161.959 138.522 157.757 144.888C152.458 152.916 140.04 146.936 143.013 137.788C145.37 130.534 137.473 124.236 130.925 128.148C122.668 133.081 114.074 122.306 120.722 115.354C125.993 109.841 121.61 100.74 114.013 101.424C104.433 102.286 101.366 88.8489 110.372 85.4692C117.513 82.7892 117.513 72.6881 110.372 70.0081C101.366 66.6284 104.433 53.1914 114.013 54.0538C121.61 54.7376 125.993 45.6368 120.722 40.1238C114.074 33.1715 122.668 22.3958 130.925 27.3294C137.473 31.2416 145.37 24.9436 143.013 17.6895C140.04 8.54162 152.458 2.56159 157.757 10.5892C161.959 16.9549 171.807 14.7072 172.83 7.14877Z"
        fill="#FFCD05" />
    <path d="M199 101C189.333 108.333 169.6 120.8 168 112" stroke="#222222" stroke-width="2"
        stroke-linecap="round" />
    <path d="M169 105C175.167 110 188.6 118.8 193 114" stroke="#222222" stroke-width="2"
        stroke-linecap="round" />
    <path d="M169.013 59.7388C169.846 61.7388 172.513 64.5388 176.513 59.7388" stroke="#222222"
        stroke-width="2" stroke-linecap="round" />
    <path d="M181.013 60.7388C181.846 62.7388 184.513 65.5388 188.513 60.7388" stroke="#222222"
        stroke-width="2" stroke-linecap="round" />
    <path d="M177.013 68.7388C180.179 75.4054 187.513 84.7388 191.513 68.7388" stroke="#222222"
        stroke-width="2" stroke-linecap="round" />
    <ellipse cx="10" cy="74.5" rx="30" ry="17.5" fill="white" />
</svg>
