<svg width="360" height="434" viewBox="0 0 360 434" fill="none" xmlns="http://www.w3.org/2000/svg">
    <path
        d="M165.864 20.4075C169.667 -6.06651 207.973 -5.7556 211.345 20.7767C214.02 41.8162 241.339 48.2882 253.161 30.6828C268.068 8.4811 302.446 25.3889 293.977 50.7577C287.262 70.8746 309.069 88.5645 327.355 77.8339C350.415 64.3019 374.055 94.4579 355.423 113.639C340.649 128.848 352.624 154.253 373.753 152.522C400.398 150.34 408.619 187.771 383.514 196.965C363.606 204.255 363.378 232.342 383.165 239.954C408.117 249.554 399.29 286.847 372.684 284.233C351.586 282.16 339.2 307.366 353.726 322.814C372.044 342.294 347.917 372.063 325.08 358.158C306.971 347.132 284.879 364.466 291.267 384.689C299.322 410.192 264.675 426.54 250.13 404.099C238.596 386.304 211.175 392.331 208.159 413.325C204.356 439.799 166.051 439.488 162.678 412.956C160.004 391.916 132.684 385.444 120.863 403.05C105.955 425.251 71.5779 408.343 80.0461 382.975C86.7612 362.858 64.9542 345.168 46.6683 355.898C23.6084 369.43 -0.0317372 339.274 18.6 320.094C33.3746 304.884 21.3991 279.48 0.270331 281.21C-26.3745 283.392 -34.5951 245.961 -9.4901 236.767C10.4176 229.477 10.6456 201.39 -9.14116 193.778C-34.0936 184.178 -25.2665 146.885 1.3394 149.499C22.4373 151.572 34.8236 126.366 20.2978 110.918C1.9799 91.4379 26.1064 61.6696 48.9436 75.5741C67.053 86.6001 89.1443 69.2665 82.7566 49.0433C74.7013 23.5404 109.349 7.1928 123.894 29.6335C135.428 47.4285 162.849 41.4008 165.864 20.4075Z"
        fill="#FFFBE6" />
    <path
        d="M165.169 74.555C167.933 55.3186 195.766 55.5445 198.217 74.8232C200.16 90.1108 220.01 94.8135 228.6 82.0211C239.432 65.8891 264.411 78.1746 258.258 96.6079C253.379 111.225 269.224 124.079 282.511 116.282C299.267 106.449 316.444 128.361 302.906 142.298C292.17 153.35 300.872 171.809 316.224 170.551C335.585 168.966 341.558 196.164 323.316 202.844C308.851 208.141 308.686 228.55 323.063 234.081C341.194 241.056 334.78 268.154 315.448 266.254C300.117 264.748 291.117 283.063 301.672 294.288C314.982 308.443 297.452 330.073 280.858 319.969C267.699 311.958 251.647 324.553 256.289 339.247C262.142 357.778 236.967 369.656 226.398 353.35C218.017 340.42 198.093 344.8 195.901 360.054C193.138 379.291 165.305 379.065 162.854 359.786C160.911 344.498 141.06 339.796 132.471 352.588C121.639 368.72 96.6595 356.435 102.813 338.001C107.692 323.384 91.8467 310.53 78.5599 318.327C61.8042 328.16 44.627 306.248 58.1651 292.311C68.9005 281.26 60.1989 262.801 44.8465 264.058C25.4859 265.643 19.5127 238.445 37.7544 231.765C52.2196 226.468 52.3853 206.06 38.008 200.528C19.8771 193.553 26.291 166.455 45.6233 168.355C60.9533 169.861 69.9533 151.546 59.3987 140.322C46.0887 126.167 63.6193 104.537 80.2131 114.64C93.3717 122.651 109.424 110.057 104.782 95.3622C98.929 76.8314 124.104 64.953 134.673 81.2588C143.054 94.1888 162.978 89.809 165.169 74.555Z"
        fill="#FFF4CA" />
    <path
        d="M171.437 138.815C172.873 128.216 188.198 128.216 189.633 138.815C190.772 147.219 201.722 149.718 206.394 142.64C212.286 133.714 226.093 140.363 222.788 150.535C220.167 158.601 228.948 165.604 236.229 161.254C245.41 155.768 254.965 167.75 247.574 175.48C241.713 181.61 246.586 191.73 255.033 190.969C265.685 190.01 269.095 204.951 259.082 208.709C251.141 211.689 251.141 222.92 259.082 225.9C269.095 229.658 265.685 244.599 255.033 243.64C246.586 242.88 241.713 252.999 247.574 259.129C254.965 266.859 245.41 278.841 236.229 273.355C228.948 269.005 220.167 276.008 222.788 284.074C226.093 294.246 212.286 300.895 206.394 291.969C201.722 284.891 190.772 287.39 189.633 295.794C188.198 306.393 172.873 306.393 171.437 295.794C170.299 287.39 159.349 284.891 154.677 291.969C148.785 300.895 134.977 294.246 138.283 284.074C140.904 276.008 132.122 269.005 124.842 273.355C115.661 278.841 106.106 266.859 113.497 259.129C119.358 252.999 114.485 242.88 106.038 243.64C95.3856 244.599 91.9753 229.658 101.989 225.9C109.929 222.92 109.929 211.689 101.989 208.709C91.9753 204.951 95.3856 190.01 106.038 190.969C114.485 191.73 119.358 181.61 113.497 175.48C106.106 167.75 115.661 155.768 124.842 161.254C132.122 165.604 140.904 158.601 138.283 150.535C134.977 140.363 148.785 133.714 154.677 142.64C159.349 149.718 170.299 147.219 171.437 138.815Z"
        fill="#FFCD05" />
    <path d="M163.838 158.21V167.998" stroke="black" stroke-width="1.57057"
        stroke-linecap="round" />
    <path d="M160 155.433L165.162 158.656" stroke="black" stroke-width="1.57057"
        stroke-linecap="round" />
    <path d="M176.162 156.433L171 159.656" stroke="black" stroke-width="1.57057"
        stroke-linecap="round" />
    <path d="M171.899 159.937V169.725" stroke="black" stroke-width="1.57057"
        stroke-linecap="round" />
    <path d="M138.101 158.484C132.63 146.404 122.643 122.304 126.459 122.544" stroke="black"
        stroke-width="1.57057" stroke-linecap="round" />
    <path d="M225.164 165.12C235.028 156.257 253.858 138.202 250.268 136.888" stroke="black"
        stroke-width="1.57057" stroke-linecap="round" />
    <path
        d="M167.5 173.433C167.884 173.433 168.5 173.77 169.08 174.93C169.63 176.03 170 177.621 170 179.433C170 181.244 169.63 182.835 169.08 183.936C168.5 185.096 167.884 185.433 167.5 185.433C167.116 185.433 166.5 185.096 165.92 183.936C165.37 182.835 165 181.244 165 179.433C165 177.621 165.37 176.03 165.92 174.93C166.5 173.77 167.116 173.433 167.5 173.433Z"
        stroke="black" stroke-width="2" />
</svg>
