<svg width="360" height="317" viewBox="0 0 360 317" fill="none" xmlns="http://www.w3.org/2000/svg">
<path d="M187.709 5.24876C125.137 -4.57804 -3.49023 -3.64533 -17.4194 78.6999C-34.8308 181.631 344.956 229.599 367.808 154.15C386.09 93.7899 321.378 64.7091 286.736 57.7138" stroke="#9A9A9A" stroke-width="1.5"/>
<path d="M310 16V96.5" stroke="#9A9A9A" stroke-width="2"/>
<path d="M293 45V125.5" stroke="#9A9A9A" stroke-width="2"/>
<path d="M55 171V218" stroke="#9A9A9A" stroke-width="2"/>
<path d="M38.5 184V264.5" stroke="#9A9A9A" stroke-width="2"/>
<path d="M165.507 86.1703C167.472 73.6305 185.528 73.6305 187.493 86.1703C188.987 95.7063 201.083 98.9475 207.145 91.436C215.116 81.5585 230.754 90.5869 226.185 102.429C222.711 111.434 231.566 120.289 240.571 116.815C252.413 112.246 261.442 127.884 251.564 135.855C244.053 141.917 247.294 154.013 256.83 155.507C269.369 157.472 269.369 175.528 256.83 177.493C247.294 178.987 244.053 191.083 251.564 197.145C261.441 205.116 252.413 220.754 240.571 216.185C231.566 212.711 222.711 221.566 226.185 230.571C230.754 242.413 215.116 251.441 207.145 241.564C201.083 234.053 188.987 237.294 187.493 246.83C185.528 259.369 167.472 259.369 165.507 246.83C164.013 237.294 151.917 234.053 145.855 241.564C137.884 251.442 122.246 242.413 126.815 230.571C130.289 221.566 121.434 212.711 112.429 216.185C100.587 220.754 91.5585 205.116 101.436 197.145C108.947 191.083 105.706 178.987 96.1703 177.493C83.6305 175.528 83.6305 157.472 96.1703 155.507C105.706 154.013 108.947 141.917 101.436 135.855C91.5585 127.884 100.587 112.246 112.429 116.815C121.434 120.289 130.289 111.434 126.815 102.429C122.246 90.5869 137.884 81.5585 145.855 91.436C151.917 98.9475 164.013 95.7063 165.507 86.1703Z" fill="#FFEEAC"/>
<path d="M167.26 98.9803C168.911 88.4403 184.089 88.4403 185.74 98.9803C186.996 106.996 197.163 109.72 202.258 103.406C208.958 95.104 222.102 102.693 218.262 112.646C215.342 120.215 222.785 127.658 230.354 124.738C240.307 120.898 247.896 134.042 239.594 140.742C233.28 145.837 236.004 156.004 244.02 157.26C254.56 158.911 254.56 174.089 244.02 175.74C236.004 176.996 233.28 187.163 239.594 192.258C247.896 198.958 240.307 212.102 230.354 208.262C222.785 205.342 215.342 212.785 218.262 220.354C222.102 230.307 208.958 237.896 202.258 229.594C197.163 223.28 186.996 226.004 185.74 234.02C184.089 244.56 168.911 244.56 167.26 234.02C166.004 226.004 155.837 223.28 150.742 229.594C144.042 237.896 130.898 230.307 134.738 220.354C137.658 212.785 130.215 205.342 122.646 208.262C112.693 212.102 105.104 198.958 113.406 192.258C119.72 187.163 116.996 176.996 108.98 175.74C98.4403 174.089 98.4403 158.911 108.98 157.26C116.996 156.004 119.72 145.837 113.406 140.742C105.104 134.042 112.693 120.898 122.646 124.738C130.215 127.658 137.658 120.215 134.738 112.646C130.898 102.693 144.042 95.104 150.742 103.406C155.837 109.72 166.004 106.996 167.26 98.9803Z" fill="#FFCD05"/>
<path d="M229.637 33.8893C229.97 31.7646 233.03 31.7646 233.363 33.8893C233.616 35.5051 235.665 36.0542 236.692 34.7815C238.043 33.1079 240.692 34.6376 239.918 36.6441C239.33 38.1699 240.83 39.6703 242.356 39.0816C244.362 38.3075 245.892 40.9571 244.218 42.3077C242.946 43.3348 243.495 45.3843 245.111 45.6374C247.235 45.9703 247.235 49.0297 245.111 49.3626C243.495 49.6157 242.946 51.6652 244.218 52.6923C245.892 54.0429 244.362 56.6925 242.356 55.9184C240.83 55.3297 239.33 56.8301 239.918 58.3559C240.692 60.3624 238.043 61.8921 236.692 60.2185C235.665 58.9458 233.616 59.4949 233.363 61.1107C233.03 63.2354 229.97 63.2354 229.637 61.1107C229.384 59.4949 227.335 58.9458 226.308 60.2185C224.957 61.8921 222.308 60.3624 223.082 58.3559C223.67 56.8301 222.17 55.3297 220.644 55.9184C218.638 56.6925 217.108 54.0429 218.782 52.6923C220.054 51.6652 219.505 49.6157 217.889 49.3626C215.765 49.0297 215.765 45.9703 217.889 45.6374C219.505 45.3843 220.054 43.3348 218.782 42.3077C217.108 40.9571 218.638 38.3075 220.644 39.0816C222.17 39.6703 223.67 38.1699 223.082 36.6441C222.308 34.6376 224.957 33.1079 226.308 34.7815C227.335 36.0542 229.384 35.5051 229.637 33.8893Z" fill="#FFCD05"/>
<path d="M272.5 210C272.722 213.218 277.242 213.728 278.174 210.639C277.674 213.826 281.968 215.329 283.564 212.525C282.368 215.521 286.219 217.941 288.399 215.563C286.566 218.218 289.782 221.434 292.437 219.601C290.059 221.781 292.479 225.632 295.475 224.436C292.671 226.032 294.174 230.326 297.361 229.826C294.272 230.758 294.782 235.278 298 235.5C294.782 235.722 294.272 240.242 297.361 241.174C294.174 240.674 292.671 244.968 295.475 246.564C292.479 245.368 290.059 249.219 292.437 251.399C289.782 249.566 286.566 252.782 288.399 255.437C286.219 253.059 282.368 255.479 283.564 258.475C281.968 255.671 277.674 257.174 278.174 260.361C277.242 257.272 272.722 257.782 272.5 261C272.278 257.782 267.758 257.272 266.826 260.361C267.326 257.174 263.032 255.671 261.436 258.475C262.632 255.479 258.781 253.059 256.601 255.437C258.434 252.782 255.218 249.566 252.563 251.399C254.941 249.219 252.521 245.368 249.525 246.564C252.329 244.968 250.826 240.674 247.639 241.174C250.728 240.242 250.218 235.722 247 235.5C250.218 235.278 250.728 230.758 247.639 229.826C250.826 230.326 252.329 226.032 249.525 224.436C252.521 225.632 254.941 221.781 252.563 219.601C255.218 221.434 258.434 218.218 256.601 215.563C258.781 217.941 262.632 215.521 261.436 212.525C263.032 215.329 267.326 213.826 266.826 210.639C267.758 213.728 272.278 213.218 272.5 210Z" fill="#FFCD05"/>
<path d="M272.5 222C272.617 223.704 275.01 223.973 275.504 222.338C275.239 224.026 277.512 224.821 278.357 223.337C277.724 224.923 279.763 226.204 280.917 224.945C279.947 226.351 281.649 228.053 283.055 227.083C281.796 228.237 283.077 230.276 284.663 229.643C283.179 230.488 283.974 232.761 285.662 232.496C284.027 232.99 284.296 235.383 286 235.5C284.296 235.617 284.027 238.01 285.662 238.504C283.974 238.239 283.179 240.512 284.663 241.357C283.077 240.724 281.796 242.763 283.055 243.917C281.649 242.947 279.947 244.649 280.917 246.055C279.763 244.796 277.724 246.077 278.357 247.663C277.512 246.179 275.239 246.974 275.504 248.662C275.01 247.027 272.617 247.296 272.5 249C272.383 247.296 269.99 247.027 269.496 248.662C269.761 246.974 267.488 246.179 266.643 247.663C267.276 246.077 265.237 244.796 264.083 246.055C265.053 244.649 263.351 242.947 261.945 243.917C263.204 242.763 261.923 240.724 260.337 241.357C261.821 240.512 261.026 238.239 259.338 238.504C260.973 238.01 260.704 235.617 259 235.5C260.704 235.383 260.973 232.99 259.338 232.496C261.026 232.761 261.821 230.488 260.337 229.643C261.923 230.276 263.204 228.237 261.945 227.083C263.351 228.053 265.053 226.351 264.083 224.945C265.237 226.204 267.276 224.923 266.643 223.337C267.488 224.821 269.761 224.026 269.496 222.338C269.99 223.973 272.383 223.704 272.5 222Z" fill="#FFEEAC"/>
<path d="M151.2 139.326C151.513 141.825 153.074 145.323 156.822 139.326" stroke="black" stroke-width="1.45185"/>
<path d="M162.444 139.326C162.757 141.825 164.318 145.323 168.067 139.326" stroke="black" stroke-width="1.45185"/>
<path d="M154.949 147.76C159.947 151.508 170.691 156.006 173.69 144.012" stroke="black" stroke-width="1.45185"/>
</svg>
