<svg width="86" height="89" viewBox="0 0 86 89" fill="none" xmlns="http://www.w3.org/2000/svg">
    <path d="M24 78C20.0513 82.1642 11.7231 89.9077 10 87.5687" stroke="#222222" />
    <path d="M57 78C54.4615 82.1642 49.1077 89.9077 48 87.5687" stroke="#222222" />
    <path
        d="M43 0C43.6634 9.88849 56.7689 12.8797 61.657 4.25834C57.9642 13.4554 68.474 21.8367 76.6188 16.1899C69.3012 22.874 75.1337 34.9852 84.9219 33.4316C75.429 36.2787 75.429 49.7213 84.9219 52.5684C75.1337 51.0148 69.3012 63.126 76.6188 69.8101C68.474 64.1633 57.9642 72.5446 61.657 81.7417C56.7689 73.1203 43.6634 76.1115 43 86C42.3366 76.1115 29.2311 73.1203 24.343 81.7417C28.0358 72.5446 17.526 64.1633 9.38124 69.8101C16.6988 63.126 10.8663 51.0148 1.0781 52.5684C10.571 49.7213 10.571 36.2787 1.0781 33.4316C10.8663 34.9852 16.6988 22.874 9.38124 16.1899C17.526 21.8367 28.0358 13.4554 24.343 4.25834C29.2311 12.8797 42.3366 9.88849 43 0Z"
        fill="#37CD9C" />
    <path d="M33 44.3854C33.5128 46.4412 35.2308 49.2421 38 44" stroke="#222222"
        stroke-linecap="round" />
    <path d="M27 36C27.524 39.0185 29.2576 43.2444 32 36" stroke="#222222" stroke-linecap="round" />
    <path d="M34 36C34.7336 39.0185 37.1606 43.2444 41 36" stroke="#222222"
        stroke-linecap="round" />
</svg>
