<svg width="220" height="187" viewBox="0 0 220 187" fill="none" xmlns="http://www.w3.org/2000/svg">
    <rect x="0.493652" y="0.0390625" width="91.3412" height="45.6706" rx="14.0525" fill="#F3F3F3" />
    <path
        d="M135.311 38.4491C136.602 28.9174 150.385 28.9174 151.676 38.4491C152.7 46.0075 162.548 48.2552 166.749 41.8895C172.048 33.8619 184.466 39.8419 181.493 48.9898C179.136 56.2439 187.034 62.5419 193.581 58.6297C201.839 53.6961 210.432 64.4718 203.785 71.4241C198.514 76.9371 202.896 86.0379 210.493 85.3541C220.073 84.4917 223.14 97.9287 214.134 101.308C206.993 103.988 206.993 114.09 214.134 116.77C223.14 120.149 220.073 133.586 210.493 132.724C202.896 132.04 198.514 141.141 203.785 146.654C210.432 153.606 201.839 164.382 193.581 159.448C187.034 155.536 179.136 161.834 181.493 169.088C184.466 178.236 172.048 184.216 166.749 176.188C162.548 169.823 152.7 172.07 151.676 179.629C150.385 189.161 136.602 189.161 135.311 179.629C134.288 172.07 124.44 169.823 120.238 176.188C114.939 184.216 102.521 178.236 105.494 169.088C107.851 161.834 99.9535 155.536 93.4058 159.448C85.1487 164.382 76.5554 153.606 83.2026 146.654C88.4737 141.141 84.091 132.04 76.4943 132.724C66.9143 133.586 63.8474 120.149 72.8528 116.77C79.9939 114.09 79.9939 103.988 72.8528 101.308C63.8474 97.9287 66.9143 84.4917 76.4943 85.3541C84.091 86.0379 88.4737 76.9371 83.2026 71.4241C76.5554 64.4718 85.1487 53.6961 93.4058 58.6297C99.9535 62.5419 107.851 56.2439 105.494 48.9898C102.521 39.8419 114.939 33.8619 120.238 41.8895C124.44 48.2552 134.288 46.0075 135.311 38.4491Z"
        fill="#FFCD05" />
    <path d="M102.994 161.539C93.327 168.872 73.5937 181.339 71.9937 172.539" stroke="#222222"
        stroke-width="2" stroke-linecap="round" />
    <path d="M177.494 169.039C183.66 174.039 197.094 182.839 201.494 178.039" stroke="#222222"
        stroke-width="2" stroke-linecap="round" />
    <path d="M131.494 91.0391C132.327 93.0391 134.994 95.8391 138.994 91.0391" stroke="#222222"
        stroke-width="2" stroke-linecap="round" />
    <path d="M143.494 92.0391C144.327 94.0391 146.994 96.8391 150.994 92.0391" stroke="#222222"
        stroke-width="2" stroke-linecap="round" />
    <path d="M139.494 100.039C142.66 106.706 149.994 116.039 153.994 100.039" stroke="#222222"
        stroke-width="2" stroke-linecap="round" />
    <circle cx="45.4937" cy="66.0391" r="7" fill="#F3F3F3" />
    <circle cx="54.9937" cy="84.5391" r="4.5" fill="#F3F3F3" />
    <path
        d="M25.1236 32.793L25.0276 30.334L34.4019 16.0121L24.4564 16.4003L24.3241 13.0123L39.4064 12.4235L39.5024 14.8826L30.1554 29.2034L40.0736 28.8162L40.2059 32.2043L25.1236 32.793ZM42.5425 32.1131L42.4476 29.6813L49.4161 20.3243L49.4118 20.215L42.3351 20.4912L42.2093 17.2671L54.1494 16.801L54.2529 19.4514L47.7404 28.5717L47.7446 28.681L54.8486 28.4037L54.9745 31.6278L42.5425 32.1131ZM57.3384 31.5355L57.2435 29.1038L64.212 19.7467L64.2077 19.6374L57.1311 19.9137L57.0052 16.6896L68.9453 16.2235L69.0488 18.8738L62.5363 27.9942L62.5406 28.1034L69.6445 27.8261L69.7704 31.0502L57.3384 31.5355Z"
        fill="#9A9A9A" />
</svg>
