<svg width="150" height="150" viewBox="0 0 150 150" fill="none" xmlns="http://www.w3.org/2000/svg">
    <path
        d="M68.989 21.3468C69.9999 14.0484 80.7929 14.0484 81.8037 21.3468C82.6053 27.1343 90.3171 28.8554 93.6075 23.9811C97.7568 17.8343 107.481 22.4133 105.153 29.4178C103.307 34.9722 109.492 39.7946 114.619 36.799C121.085 33.0212 127.814 41.2722 122.609 46.5955C118.481 50.8167 121.913 57.7853 127.862 57.2616C135.364 56.6011 137.766 66.8899 130.714 69.4776C125.121 71.5296 125.121 79.2641 130.714 81.316C137.766 83.9037 135.364 94.1925 127.862 93.5321C121.913 93.0084 118.481 99.977 122.609 104.198C127.814 109.521 121.085 117.772 114.619 113.995C109.492 110.999 103.307 115.821 105.153 121.376C107.481 128.38 97.7568 132.959 93.6075 126.812C90.3171 121.938 82.6053 123.659 81.8037 129.447C80.7929 136.745 69.9999 136.745 68.989 129.447C68.1874 123.659 60.4756 121.938 57.1853 126.812C53.036 132.959 43.3118 128.38 45.6396 121.376C47.4855 115.821 41.3011 110.999 36.1738 113.995C29.7078 117.772 22.9785 109.521 28.1839 104.198C32.3117 99.977 28.8797 93.0084 22.9308 93.5321C15.4288 94.1925 13.0271 83.9037 20.0792 81.316C25.6714 79.2641 25.6714 71.5296 20.0792 69.4776C13.0271 66.8899 15.4288 56.6011 22.9308 57.2616C28.8797 57.7853 32.3117 50.8167 28.1839 46.5955C22.9785 41.2722 29.7078 33.0212 36.1738 36.799C41.3012 39.7946 47.4855 34.9722 45.6396 29.4178C43.3118 22.4133 53.036 17.8343 57.1853 23.9811C60.4756 28.8554 68.1874 27.1343 68.989 21.3468Z"
        fill="#FFCD05" />
    <path d="M64.2036 60.8839C68.1374 64.1231 76.5018 66.9574 78.4893 52.381" stroke="black"
        stroke-width="1.76543" stroke-linecap="round" />
    <path d="M62.6167 45.2381V56.3492" stroke="black" stroke-width="1.76543"
        stroke-linecap="round" />
    <path d="M69.7593 42.8571V53.9683" stroke="black" stroke-width="1.76543"
        stroke-linecap="round" />
    <path d="M22.2228 31.4815C23.1482 24.0741 6.64558 44.7325 29.793 53.9926" stroke="black"
        stroke-width="1.76543" stroke-linecap="round" />
    <path d="M122.222 94.4445C127.16 94.8766 137.037 98.0741 137.037 107.407" stroke="black"
        stroke-width="1.76543" stroke-linecap="round" />
</svg>
