<svg width="291" height="259" viewBox="0 0 291 259" fill="none" xmlns="http://www.w3.org/2000/svg">
    <path
        d="M36.5361 21.0833C7.65105 22.2834 0.68774 5.00031 0 0H291C289.762 12.8008 266.843 18.619 258.762 18.619C249.272 31.4198 216.896 31.0971 208.471 30.097C173.809 58.8988 109.523 42.0978 95.4241 30.097C69.0148 40.0977 38.9432 30.4172 36.5361 21.0833Z"
        fill="url(#paint0_linear_195_560)" />
    <path
        d="M136.599 115.339C137.846 106.136 151.154 106.136 152.401 115.339C153.389 122.638 162.898 124.808 166.956 118.661C172.072 110.91 184.062 116.684 181.192 125.517C178.916 132.522 186.542 138.603 192.864 134.825C200.837 130.062 209.135 140.467 202.716 147.18C197.626 152.503 201.858 161.291 209.194 160.63C218.444 159.797 221.406 172.772 212.71 176.035C205.814 178.623 205.814 188.377 212.71 190.965C221.406 194.228 218.444 207.203 209.194 206.37C201.858 205.709 197.626 214.497 202.716 219.82C209.135 226.533 200.837 236.938 192.864 232.175C186.542 228.397 178.916 234.478 181.192 241.483C184.062 250.316 172.072 256.09 166.956 248.339C162.898 242.192 153.389 244.362 152.401 251.661C151.154 260.865 137.846 260.865 136.599 251.661C135.611 244.362 126.102 242.192 122.044 248.339C116.928 256.09 104.938 250.316 107.808 241.483C110.084 234.478 102.458 228.397 96.1359 232.175C88.1629 236.939 79.8651 226.533 86.2838 219.82C91.3737 214.497 87.1417 205.709 79.8063 206.37C70.5559 207.203 67.5945 194.228 76.2902 190.965C83.1857 188.377 83.1857 178.623 76.2902 176.035C67.5945 172.772 70.5559 159.797 79.8063 160.63C87.1417 161.291 91.3737 152.503 86.2838 147.18C79.8651 140.467 88.1629 130.062 96.1359 134.825C102.458 138.603 110.084 132.522 107.808 125.517C104.938 116.684 116.928 110.91 122.044 118.661C126.102 124.808 135.611 122.638 136.599 115.339Z"
        fill="#FFCD05" />
    <path d="M128.5 149C130 146.167 134.6 142.2 141 149" stroke="black" stroke-width="2"
        stroke-linecap="round" />
    <path d="M130 131.5V140" stroke="black" stroke-width="2" stroke-linecap="round" />
    <path d="M137 133V141.5" stroke="black" stroke-width="2" stroke-linecap="round" />
    <circle cx="145" cy="96" r="3" fill="#F3F3F3" />
    <circle cx="145" cy="74" r="6" fill="#F3F3F3" />
    <defs>
        <linearGradient id="paint0_linear_195_560" x1="145.285" y1="1.09524" x2="145.285" y2="46"
            gradientUnits="userSpaceOnUse">
            <stop stop-color="#F5F5F5" stop-opacity="0" />
            <stop offset="1" stop-color="#E7E7E7" />
        </linearGradient>
    </defs>
</svg>
