<svg width="262" height="262" viewBox="0 0 262 262" fill="none" xmlns="http://www.w3.org/2000/svg">
    <path
        d="M122.818 60.4101C124.109 50.8784 137.891 50.8784 139.182 60.4101C140.206 67.9685 150.054 70.2162 154.256 63.8505C159.555 55.8229 171.972 61.803 169 70.9509C166.643 78.205 174.54 84.5029 181.088 80.5907C189.345 75.6572 197.938 86.4328 191.291 93.3851C186.02 98.8981 190.403 107.999 197.999 107.315C207.579 106.453 210.646 119.89 201.641 123.269C194.5 125.949 194.5 136.051 201.641 138.731C210.646 142.11 207.579 155.547 197.999 154.685C190.403 154.001 186.02 163.102 191.291 168.615C197.938 175.567 189.345 186.343 181.088 181.409C174.54 177.497 166.643 183.795 169 191.049C171.972 200.197 159.555 206.177 154.256 198.149C150.054 191.784 140.206 194.031 139.182 201.59C137.891 211.122 124.109 211.122 122.818 201.59C121.794 194.031 111.946 191.784 107.744 198.149C102.445 206.177 90.0277 200.197 93.0002 191.049C95.3573 183.795 87.4599 177.497 80.9122 181.409C72.6551 186.343 64.0618 175.567 70.709 168.615C75.9801 163.102 71.5974 154.001 64.0007 154.685C54.4207 155.547 51.3538 142.11 60.3592 138.731C67.5003 136.051 67.5003 125.949 60.3592 123.269C51.3538 119.89 54.4207 106.453 64.0007 107.315C71.5974 107.999 75.9801 98.8981 70.709 93.3851C64.0618 86.4328 72.6551 75.6572 80.9122 80.5907C87.4599 84.5029 95.3573 78.2049 93.0002 70.9509C90.0277 61.803 102.445 55.8229 107.744 63.8505C111.946 70.2162 121.794 67.9685 122.818 60.4101Z"
        fill="#FFCD05" />
    <path d="M90.5 183.5C80.8333 190.833 61.1 203.3 59.5 194.5" stroke="black" />
    <path d="M119.5 204.5C113.333 209.5 99.9 218.3 95.5 213.5" stroke="black" />
    <path d="M119 116C119.833 118 122.5 120.8 126.5 116" stroke="black" />
    <path d="M131 117C131.833 119 134.5 121.8 138.5 117" stroke="black" />
    <path d="M127 122C130.167 128.667 137.5 138 141.5 122" stroke="black" />
</svg>
