<svg width="346" height="270" viewBox="0 0 346 270" fill="none" xmlns="http://www.w3.org/2000/svg">
    <path
        d="M228.067 51.191C229.161 43.1149 240.839 43.1149 241.933 51.191C242.8 57.5952 251.144 59.4997 254.704 54.106C259.194 47.3043 269.715 52.3711 267.196 60.1219C265.199 66.2682 271.89 71.6044 277.438 68.2896C284.434 64.1093 291.715 73.2394 286.083 79.1299C281.617 83.8009 285.33 91.5119 291.767 90.9324C299.884 90.2016 302.482 101.587 294.852 104.45C288.801 106.721 288.801 115.279 294.852 117.55C302.482 120.413 299.884 131.798 291.767 131.068C285.33 130.488 281.617 138.199 286.083 142.87C291.715 148.761 284.434 157.891 277.438 153.71C271.89 150.396 265.199 155.732 267.196 161.878C269.715 169.629 259.194 174.696 254.704 167.894C251.144 162.5 242.8 164.405 241.933 170.809C240.839 178.885 229.161 178.885 228.067 170.809C227.2 164.405 218.856 162.5 215.296 167.894C210.806 174.696 200.285 169.629 202.804 161.878C204.801 155.732 198.11 150.396 192.562 153.71C185.566 157.891 178.285 148.761 183.917 142.87C188.383 138.199 184.67 130.488 178.233 131.068C170.116 131.798 167.518 120.413 175.148 117.55C181.199 115.279 181.199 106.721 175.148 104.45C167.518 101.587 170.116 90.2016 178.233 90.9324C184.67 91.5119 188.383 83.8009 183.917 79.1299C178.285 73.2394 185.566 64.1093 192.562 68.2896C198.11 71.6044 204.801 66.2682 202.804 60.1219C200.285 52.3711 210.806 47.3043 215.296 54.106C218.856 59.4997 227.2 57.5952 228.067 51.191Z"
        fill="#FFCD05" />
    <path d="M222.5 95.2454C221 98.0787 216.4 102.045 210 95.2454" stroke="black" />
    <path d="M218.5 83V91.5" stroke="black" />
    <path d="M210.5 83V91.5" stroke="black" />
    <path
        d="M83.5 44L84.6845 61.6561C85.4814 73.5348 101.225 77.1281 107.096 66.7715L115.824 51.3778L109.231 67.7994C104.795 78.8475 117.42 88.9155 127.204 82.1323L141.746 72.05L128.681 83.9845C119.891 92.0138 126.897 106.563 138.655 104.696L156.132 101.922L139.182 107.006C127.779 110.426 127.779 126.574 139.182 129.994L156.132 135.078L138.655 132.304C126.897 130.437 119.891 144.986 128.681 153.016L141.746 164.95L127.204 154.868C117.42 148.084 104.795 158.153 109.231 169.201L115.824 185.622L107.096 170.228C101.224 159.872 85.4814 163.465 84.6845 175.344L83.5 193L82.3155 175.344C81.5186 163.465 65.7755 159.872 59.9036 170.228L51.1757 185.622L57.7692 169.201C62.2052 158.153 49.5802 148.084 39.7962 154.868L25.2536 164.95L38.3192 153.015C47.1094 144.986 40.1031 130.437 28.3449 132.304L10.8679 135.078L27.8178 129.994C39.2213 126.574 39.2213 110.426 27.8178 107.006L10.8679 101.922L28.3449 104.696C40.1031 106.563 47.1094 92.0138 38.3191 83.9845L25.2536 72.05L39.7962 82.1324C49.5802 88.9156 62.2052 78.8474 57.7692 67.7994L51.1757 51.3778L59.9036 66.7715C65.7755 77.1281 81.5186 73.5348 82.3155 61.6561L83.5 44Z"
        fill="#37CD9C" />
    <path d="M74 104C74 102.028 74.8 99.0315 78 102.817" stroke="black" />
    <path d="M68 96C69.1429 98.2639 71.9429 101.433 74 96" stroke="black" />
    <path d="M77 96C78.1429 98.2639 80.9429 101.433 83 96" stroke="black" />
    <circle cx="17" cy="206" r="13" fill="#6BB5FF" />
    <circle cx="13" cy="257" r="13" fill="#6BB5FF" />
    <circle cx="185" cy="206" r="13" fill="#FF6B9D" />
    <circle cx="181" cy="252" r="13" fill="#FF6B9D" />
    <rect x="37" y="193" width="111" height="26" fill="#F3F3F3" />
    <rect x="33" y="244" width="111" height="26" fill="#F3F3F3" />
    <rect x="205" y="193" width="111" height="26" fill="#F3F3F3" />
    <rect x="201" y="239" width="111" height="26" fill="#F3F3F3" />
    <path d="M11 205.125L16.5152 210L25 201" stroke="white" stroke-width="3"
        stroke-linecap="round" />
    <path d="M7 256.125L12.5152 261L21 252" stroke="white" stroke-width="3"
        stroke-linecap="round" />
    <path d="M179 205.125L184.515 210L193 201" stroke="white" stroke-width="3"
        stroke-linecap="round" />
    <path d="M175 251.125L180.515 256L189 247" stroke="white" stroke-width="3"
        stroke-linecap="round" />
</svg>
