<svg width="324" height="279" viewBox="0 0 324 279" fill="none" xmlns="http://www.w3.org/2000/svg">
    <path
        d="M89.8561 91.2832C160.035 77.146 236.352 91.2832 236.352 91.2832C359.543 109.076 314.04 227.693 141.463 211.482C-31.1143 195.271 2.32734 108.916 89.8561 91.2832Z"
        stroke="#D9D9D9" />
    <ellipse cx="92.5" cy="80" rx="23.5" ry="24" fill="#FF9C6C" />
    <circle cx="24" cy="160" r="24" fill="#AF97FF" />
    <circle cx="300" cy="151" r="24" fill="#37CD9C" />
    <circle cx="220" cy="74" r="24" fill="#6BB5FF" />
    <path
        d="M151.599 58.3393C152.846 49.1355 166.154 49.1355 167.401 58.3393C168.389 65.6377 177.898 67.8082 181.956 61.6614C187.072 53.9098 199.062 59.6842 196.192 68.5173C193.916 75.5219 201.542 81.6032 207.864 77.8255C215.837 73.0615 224.135 83.4665 217.716 90.1796C212.626 95.5028 216.858 104.291 224.194 103.63C233.444 102.797 236.406 115.772 227.71 119.035C220.814 121.623 220.814 131.377 227.71 133.965C236.406 137.228 233.444 150.203 224.194 149.37C216.858 148.709 212.626 157.497 217.716 162.82C224.135 169.533 215.837 179.938 207.864 175.175C201.542 171.397 193.916 177.478 196.192 184.483C199.062 193.316 187.072 199.09 181.956 191.339C177.898 185.192 168.389 187.362 167.401 194.661C166.154 203.865 152.846 203.865 151.599 194.661C150.611 187.362 141.102 185.192 137.044 191.339C131.928 199.09 119.938 193.316 122.808 184.483C125.084 177.478 117.458 171.397 111.136 175.175C103.163 179.939 94.8651 169.533 101.284 162.82C106.374 157.497 102.142 148.709 94.8063 149.37C85.5559 150.203 82.5945 137.228 91.2902 133.965C98.1857 131.377 98.1857 121.623 91.2902 119.035C82.5945 115.772 85.5559 102.797 94.8063 103.63C102.142 104.291 106.374 95.5028 101.284 90.1796C94.8651 83.4665 103.163 73.0615 111.136 77.8255C117.458 81.6032 125.084 75.5219 122.808 68.5173C119.938 59.6842 131.928 53.9098 137.044 61.6614C141.102 67.8082 150.611 65.6377 151.599 58.3393Z"
        fill="#FFCD05" />
    <path d="M156 88.2454C154.5 91.0787 149.9 95.0454 143.5 88.2454" stroke="black" />
    <path d="M152 76V84.5" stroke="black" />
    <path d="M144 76V84.5" stroke="black" />
    <circle cx="190.5" cy="207.5" r="23.5" fill="#FF6A6C" />
    <rect x="44" y="8" width="84" height="34" rx="8" fill="#F3F3F3" />
    <path
        d="M85.6444 25.3438V26.5469H80.0975V29.2656H78.5975V26.5469H72.8319V25.3438H85.6444ZM84.2225 30.8125V32.0312H74.4412V27.9219H75.9256V30.8125H84.2225ZM79.2225 18.6562C82.2381 18.6562 84.1912 19.75 84.1912 21.5C84.1912 23.25 82.2381 24.3281 79.2225 24.3281C76.2225 24.3281 74.2381 23.25 74.2381 21.5C74.2381 19.75 76.2225 18.6562 79.2225 18.6562ZM79.2225 19.8438C77.1756 19.8438 75.8162 20.4688 75.8319 21.5C75.8162 22.5156 77.1756 23.125 79.2225 23.125C81.285 23.125 82.6287 22.5156 82.6287 21.5C82.6287 20.4688 81.285 19.8438 79.2225 19.8438ZM99.1369 25.1406V26.3281H86.3556V25.1406H92.0275V23.6562H87.9494V18.9688H97.5588V20.1406H89.4181V22.4688H97.6525V23.6562H93.465V25.1406H99.1369ZM92.7306 27.2344C95.7463 27.2344 97.5588 28.1562 97.5588 29.7812C97.5588 31.4062 95.7463 32.3125 92.7306 32.3281C89.6994 32.3125 87.8713 31.4062 87.8713 29.7812C87.8713 28.1562 89.6994 27.2344 92.7306 27.2344ZM92.7306 28.3906C90.59 28.3906 89.3713 28.8906 89.3713 29.7812C89.3713 30.6719 90.59 31.1719 92.7306 31.1562C94.84 31.1719 96.0744 30.6719 96.0744 29.7812C96.0744 28.8906 94.84 28.3906 92.7306 28.3906Z"
        fill="#9A9A9A" />
    <rect x="185" y="3" width="84" height="34" rx="8" fill="#F3F3F3" />
    <path
        d="M212.433 13.3281V27.3281H211.011V20.1406H209.339V26.6406H207.933V13.5938H209.339V18.8906H211.011V13.3281H212.433ZM204.589 17.0312C204.589 19.5469 205.542 21.8281 207.574 22.875L206.699 24.0156C205.324 23.2734 204.402 21.9688 203.902 20.3438C203.425 22.1875 202.496 23.6562 201.074 24.5L200.152 23.375C202.199 22.2188 203.152 19.8125 203.152 17.0312V16.125H200.527V14.9219H207.027V16.125H204.589V17.0312ZM225.519 13.3281V21.6562H224.035V18.1094H221.426V16.8906H224.035V13.3281H225.519ZM220.832 22.0469C223.769 22.0469 225.566 23.0156 225.566 24.6875C225.566 26.3594 223.769 27.3125 220.832 27.3281C217.894 27.3125 216.082 26.3594 216.097 24.6875C216.082 23.0156 217.894 22.0469 220.832 22.0469ZM220.832 23.2031C218.785 23.2031 217.566 23.7344 217.566 24.6875C217.566 25.625 218.785 26.1719 220.832 26.1562C222.879 26.1719 224.097 25.625 224.097 24.6875C224.097 23.7344 222.879 23.2031 220.832 23.2031ZM218.863 15.7969C218.863 17.5781 220.129 19.2969 222.238 20.0156L221.472 21.1875C219.902 20.6406 218.746 19.5234 218.144 18.1406C217.527 19.7109 216.301 20.9688 214.629 21.5781L213.847 20.3906C216.019 19.6406 217.347 17.75 217.347 15.8125V15.5H214.316V14.2969H221.863V15.5H218.863V15.7969ZM235.153 14.3906V15.1719C235.137 16.1094 235.137 17.5 234.793 19.3125L233.324 19.1719C233.629 17.6172 233.676 16.4922 233.699 15.6094H228.09V14.3906H235.153ZM231.574 17.5312V20.4219C233.074 20.375 234.621 20.2656 236.028 20.0625L236.121 21.1406C233.199 21.6562 229.856 21.7031 227.387 21.7188L227.246 20.5156C228.106 20.5078 229.082 20.5 230.106 20.4688V17.5312H231.574ZM238.434 13.3281V17.7812H240.356V19.0312H238.434V23.8438H236.918V13.3281H238.434ZM238.887 25.8281V27.0312H229.371V22.8906H230.856V25.8281H238.887ZM252.489 13.3281V27.3594H251.004V13.3281H252.489ZM248.208 14.5938V19.7031H243.176V22.7656C245.442 22.7578 247.426 22.6562 249.77 22.2656L249.911 23.4844C247.426 23.9062 245.317 24 242.848 24H241.661V18.5156H246.692V15.7969H241.645V14.5938H248.208Z"
        fill="#9A9A9A" />
    <rect x="240" y="183" width="84" height="34" rx="8" fill="#F3F3F3" />
    <path
        d="M260.214 197.453C260.214 199.672 261.667 202.141 263.792 203.141L262.949 204.297C261.378 203.539 260.136 201.961 259.511 200.125C258.863 202.133 257.55 203.859 255.949 204.656L255.074 203.484C257.199 202.469 258.746 199.828 258.746 197.453V195.969H255.589V194.734H263.261V195.969H260.214V197.453ZM266.246 193.328V198.875H268.496V200.125H266.246V207.328H264.761V193.328H266.246ZM280.488 193.328V207.328H278.988V193.328H280.488ZM276.316 194.828C276.316 198.922 274.566 202.484 269.769 204.781L268.988 203.578C272.715 201.805 274.527 199.281 274.816 196.016H269.66V194.828H276.316ZM294.387 193.328V207.328H292.981V193.328H294.387ZM291.528 193.688V206.641H290.121V201.875H287.731V200.656H290.121V198.375H287.965C287.285 200.727 285.793 202.766 283.153 204.344L282.278 203.281C285.246 201.516 286.676 199.164 286.934 196.281H282.965V195.062H288.403C288.403 195.781 288.348 196.477 288.231 197.156H290.121V193.688H291.528ZM297.864 193.922V195.828H301.536V193.922H303.004V200.031H296.411V193.922H297.864ZM297.864 198.844H301.536V196.969H297.864V198.844ZM306.864 193.328V196.266H308.895V197.469H306.864V200.531H305.379V193.328H306.864ZM306.864 201.141V204.672H299.301V206H307.348V207.188H297.848V203.578H305.395V202.312H297.817V201.141H306.864Z"
        fill="#9A9A9A" />
    <rect x="125" y="245" width="84" height="34" rx="8" fill="#F3F3F3" />
    <path
        d="M154.234 256.75C154.218 260.875 152.875 264.547 147.906 267.078L147.078 265.953C149.531 264.695 151.047 263.188 151.89 261.406L147.359 261.844L147.125 260.562L152.359 260.234C152.57 259.516 152.703 258.75 152.765 257.953H147.843V256.75H154.234ZM158.75 255.328V269.328H157.281V262.094H154.203V260.875H157.281V255.328H158.75ZM172.227 255.328V269.359H170.742V255.328H172.227ZM167.945 256.594V261.703H162.914V264.766C165.18 264.758 167.164 264.656 169.508 264.266L169.648 265.484C167.164 265.906 165.055 266 162.586 266H161.398V260.516H166.43V257.797H161.383V256.594H167.945ZM177.907 256.375C179.805 256.375 181.196 257.984 181.422 260.578H184.313V255.328H185.782V269.359H184.313V261.781H181.438C181.274 264.508 179.852 266.203 177.907 266.203C175.813 266.203 174.344 264.297 174.36 261.281C174.344 258.281 175.813 256.375 177.907 256.375ZM177.907 257.703C176.641 257.703 175.766 259.078 175.766 261.281C175.766 263.5 176.641 264.875 177.907 264.875C179.172 264.875 180.047 263.5 180.047 261.281C180.047 259.078 179.172 257.703 177.907 257.703Z"
        fill="#9A9A9A" />
    <rect x="8" y="194" width="84" height="34" rx="8" fill="#F3F3F3" />
    <path
        d="M45.2069 205.75V206.938H36.8631V205.75H40.3006V204.266H41.785V205.75H45.2069ZM41.035 207.562C43.0506 207.578 44.4256 208.578 44.4256 210.109C44.4256 211.641 43.0506 212.656 41.035 212.656C39.0037 212.656 37.6287 211.641 37.6287 210.109C37.6287 208.578 39.0037 207.578 41.035 207.562ZM41.035 208.703C39.8475 208.703 39.0506 209.25 39.0662 210.109C39.0506 210.984 39.8475 211.5 41.035 211.5C42.2225 211.5 43.0194 210.984 43.035 210.109C43.0194 209.25 42.2225 208.703 41.035 208.703ZM47.8475 204.328V208.125H49.8787V209.359H47.8475V213.078H46.3631V204.328H47.8475ZM47.8475 213.797V218.328H46.3631V215H38.5975V213.797H47.8475ZM53.4025 212.719V214.203H59.9806V212.719H61.465V218.156H51.9338V212.719H53.4025ZM53.4025 216.969H59.9806V215.359H53.4025V216.969ZM63.1213 210.609V211.844H50.3556V210.609H63.1213ZM57.4963 205.078C57.4963 206.688 59.7306 208.25 62.4181 208.578L61.8869 209.75C59.6134 209.43 57.6369 208.359 56.7463 206.875C55.8322 208.367 53.8478 209.43 51.6056 209.75L51.0431 208.578C53.7619 208.234 55.9806 206.734 55.9806 205.078V204.484H57.4963V205.078Z"
        fill="#9A9A9A" />
</svg>
