<svg width="295" height="279" viewBox="0 0 295 279" fill="none" xmlns="http://www.w3.org/2000/svg">
    <circle cx="46" cy="13" r="13" fill="#FF6B9D" />
    <circle cx="13" cy="52" r="13" fill="#FF6B9D" />
    <rect x="66" width="111" height="26" fill="#F3F3F3" />
    <rect x="33" y="39" width="111" height="26" fill="#F3F3F3" />
    <path d="M40 12.125L45.5152 17L54 8" stroke="white" stroke-width="3" stroke-linecap="round" />
    <path d="M6 52.5833L11.5152 58L20 48" stroke="white" stroke-width="3" stroke-linecap="round" />
    <path
        d="M60.4998 242.5L109 175.5C178 81 221.5 78.5 242 82.5C256.053 85.242 253.5 99 253 108C252.5 117 261 123.5 273.5 113.5C279.327 108.838 284.532 109.949 288.422 112.776C293.24 116.278 292.803 123.128 289.955 128.359C266.663 171.134 226.617 243.757 222.5 247.5C217 252.5 200 268.5 190 252C180 235.5 147 256.5 137.5 261C128 265.5 118.5 266 109 247.5C99.4997 229 96.9998 242.5 74.9998 252C57.3998 259.6 57.9998 248.833 60.4998 242.5Z"
        fill="#222222" />
    <path
        d="M158.599 84.3393C159.846 75.1355 173.154 75.1355 174.401 84.3393C175.389 91.6377 184.898 93.8082 188.956 87.6614C194.072 79.9098 206.062 85.6842 203.192 94.5173C200.916 101.522 208.542 107.603 214.864 103.825C222.837 99.0615 231.135 109.467 224.716 116.18C219.626 121.503 223.858 130.291 231.194 129.63C240.444 128.797 243.406 141.772 234.71 145.035C227.814 147.623 227.814 157.377 234.71 159.965C243.406 163.228 240.444 176.203 231.194 175.37C223.858 174.709 219.626 183.497 224.716 188.82C231.135 195.533 222.837 205.938 214.864 201.175C208.542 197.397 200.916 203.478 203.192 210.483C206.062 219.316 194.072 225.09 188.956 217.339C184.898 211.192 175.389 213.362 174.401 220.661C173.154 229.865 159.846 229.865 158.599 220.661C157.611 213.362 148.102 211.192 144.044 217.339C138.928 225.09 126.938 219.316 129.808 210.483C132.084 203.478 124.458 197.397 118.136 201.175C110.163 205.939 101.865 195.533 108.284 188.82C113.374 183.497 109.142 174.709 101.806 175.37C92.5559 176.203 89.5945 163.228 98.2902 159.965C105.186 157.377 105.186 147.623 98.2902 145.035C89.5945 141.772 92.5559 128.797 101.806 129.63C109.142 130.291 113.374 121.503 108.284 116.18C101.865 109.467 110.163 99.0615 118.136 103.825C124.458 107.603 132.084 101.522 129.808 94.5173C126.938 85.6842 138.928 79.9098 144.044 87.6614C148.102 93.8082 157.611 91.6377 158.599 84.3393Z"
        fill="#FFCD05" />
    <path d="M150.5 118C152 115.167 156.6 111.2 163 118" stroke="black" />
    <path d="M152 100.5V109" stroke="black" />
    <path d="M159 102V110.5" stroke="black" />
</svg>
