<svg width="260" height="264" viewBox="0 0 260 264" fill="none" xmlns="http://www.w3.org/2000/svg">
    <path
        d="M118.599 58.3393C119.846 49.1355 133.154 49.1355 134.401 58.3393C135.389 65.6377 144.898 67.8082 148.956 61.6614C154.072 53.9098 166.062 59.6842 163.192 68.5173C160.916 75.5219 168.542 81.6032 174.864 77.8255C182.837 73.0615 191.135 83.4665 184.716 90.1796C179.626 95.5028 183.858 104.291 191.194 103.63C200.444 102.797 203.406 115.772 194.71 119.035C187.814 121.623 187.814 131.377 194.71 133.965C203.406 137.228 200.444 150.203 191.194 149.37C183.858 148.709 179.626 157.497 184.716 162.82C191.135 169.533 182.837 179.938 174.864 175.175C168.542 171.397 160.916 177.478 163.192 184.483C166.062 193.316 154.072 199.09 148.956 191.339C144.898 185.192 135.389 187.362 134.401 194.661C133.154 203.865 119.846 203.865 118.599 194.661C117.611 187.362 108.102 185.192 104.044 191.339C98.9281 199.09 86.9375 193.316 89.8079 184.483C92.084 177.478 84.4583 171.397 78.1359 175.175C70.1629 179.939 61.8651 169.533 68.2838 162.82C73.3737 157.497 69.1417 148.709 61.8063 149.37C52.5559 150.203 49.5945 137.228 58.2902 133.965C65.1857 131.377 65.1857 121.623 58.2902 119.035C49.5945 115.772 52.5559 102.797 61.8063 103.63C69.1417 104.291 73.3737 95.5028 68.2838 90.1796C61.8651 83.4665 70.1629 73.0615 78.1359 77.8255C84.4583 81.6032 92.084 75.5219 89.8079 68.5173C86.9375 59.6842 98.9281 53.9098 104.044 61.6614C108.102 67.8082 117.611 65.6377 118.599 58.3393Z"
        fill="#FFCD05" />
    <path
        d="M161 105L148 106.634C150.516 110.882 151.774 110.556 156.387 111.863C160.077 112.908 161 107.723 161 105Z"
        stroke="black" />
    <path d="M106.5 189C104.333 197.667 101.3 215.3 106.5 216.5C111.7 217.7 104.333 220 100 221"
        stroke="black" />
    <path
        d="M198 141.88C205.863 141.632 221.124 142.516 219.263 148.035C217.402 153.554 223.124 149.481 226.218 146.756"
        stroke="black" />
    <path d="M152 94V104.5" stroke="black" />
    <path d="M158 94V104.5" stroke="black" />
    <path
        d="M29 248V260C29 262.209 30.7909 264 33 264H255.5C257.709 264 259.5 262.209 259.5 260V165C259.5 162.791 257.709 161 255.5 161H229C226.791 161 225 162.791 225 165V179.5C225 181.709 223.209 183.5 221 183.5H183C180.791 183.5 179 185.291 179 187.5V201.5C179 203.709 177.209 205.5 175 205.5H132.5C130.291 205.5 128.5 207.291 128.5 209.5V219C128.5 221.209 126.709 223 124.5 223H78C75.7909 223 74 224.791 74 227V240C74 242.209 72.2091 244 70 244H33C30.7909 244 29 245.791 29 248Z"
        fill="#F3F3F3" />
</svg>
