<svg width="360" height="161" viewBox="0 0 360 161" fill="none" xmlns="http://www.w3.org/2000/svg">
    <path opacity="0.5"
        d="M87.2948 1.69309C87.5102 0.318298 89.4898 0.318298 89.7052 1.69309C89.869 2.73856 91.1951 3.09391 91.8597 2.27039C92.7336 1.18748 94.4481 2.1773 93.9472 3.47559C93.5663 4.46289 94.5371 5.43371 95.5244 5.05281C96.8227 4.55194 97.8125 6.26636 96.7296 7.14028C95.9061 7.80485 96.2614 9.13102 97.3069 9.2948C98.6817 9.51018 98.6817 11.4898 97.3069 11.7052C96.2614 11.869 95.9061 13.1951 96.7296 13.8597C97.8125 14.7336 96.8227 16.4481 95.5244 15.9472C94.5371 15.5663 93.5663 16.5371 93.9472 17.5244C94.4481 18.8227 92.7336 19.8125 91.8597 18.7296C91.1951 17.9061 89.869 18.2614 89.7052 19.3069C89.4898 20.6817 87.5102 20.6817 87.2948 19.3069C87.131 18.2614 85.8049 17.9061 85.1403 18.7296C84.2664 19.8125 82.5519 18.8227 83.0528 17.5244C83.4337 16.5371 82.4629 15.5663 81.4756 15.9472C80.1773 16.4481 79.1875 14.7336 80.2704 13.8597C81.0939 13.1951 80.7386 11.869 79.6931 11.7052C78.3183 11.4898 78.3183 9.51018 79.6931 9.2948C80.7386 9.13102 81.0939 7.80485 80.2704 7.14028C79.1875 6.26636 80.1773 4.55194 81.4756 5.05281C82.4629 5.43371 83.4337 4.46289 83.0528 3.47559C82.5519 2.1773 84.2664 1.18748 85.1403 2.27039C85.8049 3.09391 87.131 2.73856 87.2948 1.69309Z"
        fill="#FFCD05" />
    <path opacity="0.5"
        d="M45.98 15.0855C46.4304 12.211 50.5696 12.211 51.02 15.0855C51.3624 17.2715 54.1353 18.0145 55.5249 16.2926C57.3522 14.0284 60.9369 16.098 59.8896 18.8126C59.0932 20.877 61.1231 22.9068 63.1874 22.1104C65.902 21.0631 67.9716 24.6478 65.7074 26.4751C63.9855 27.8647 64.7285 30.6376 66.9145 30.98C69.789 31.4304 69.789 35.5696 66.9145 36.02C64.7285 36.3624 63.9855 39.1353 65.7074 40.5249C67.9716 42.3522 65.902 45.9369 63.1874 44.8896C61.1231 44.0932 59.0932 46.1231 59.8896 48.1874C60.9369 50.902 57.3522 52.9716 55.5249 50.7074C54.1353 48.9855 51.3624 49.7285 51.02 51.9145C50.5696 54.789 46.4304 54.789 45.98 51.9145C45.6376 49.7285 42.8647 48.9855 41.4751 50.7074C39.6478 52.9716 36.0631 50.902 37.1104 48.1874C37.9068 46.1231 35.8769 44.0932 33.8126 44.8896C31.098 45.9369 29.0284 42.3522 31.2926 40.5249C33.0145 39.1353 32.2715 36.3624 30.0855 36.02C27.211 35.5696 27.211 31.4304 30.0855 30.98C32.2715 30.6376 33.0145 27.8647 31.2926 26.4751C29.0284 24.6478 31.098 21.0631 33.8126 22.1104C35.877 22.9068 37.9068 20.877 37.1104 18.8126C36.0631 16.098 39.6478 14.0284 41.4751 16.2926C42.8647 18.0145 45.6376 17.2715 45.98 15.0855Z"
        fill="#37CD9C" />
    <path opacity="0.5"
        d="M328.98 26.0855C329.43 23.211 333.57 23.211 334.02 26.0855C334.362 28.2715 337.135 29.0145 338.525 27.2926C340.352 25.0284 343.937 27.098 342.89 29.8126C342.093 31.877 344.123 33.9068 346.187 33.1104C348.902 32.0631 350.972 35.6478 348.707 37.4751C346.985 38.8647 347.728 41.6376 349.914 41.98C352.789 42.4304 352.789 46.5696 349.914 47.02C347.728 47.3624 346.985 50.1353 348.707 51.5249C350.972 53.3522 348.902 56.9369 346.187 55.8896C344.123 55.0932 342.093 57.1231 342.89 59.1874C343.937 61.902 340.352 63.9716 338.525 61.7074C337.135 59.9855 334.362 60.7285 334.02 62.9145C333.57 65.789 329.43 65.789 328.98 62.9145C328.638 60.7285 325.865 59.9855 324.475 61.7074C322.648 63.9716 319.063 61.902 320.11 59.1874C320.907 57.1231 318.877 55.0932 316.813 55.8896C314.098 56.9369 312.028 53.3522 314.293 51.5249C316.015 50.1353 315.272 47.3624 313.086 47.02C310.211 46.5696 310.211 42.4304 313.086 41.98C315.272 41.6376 316.015 38.8647 314.293 37.4751C312.028 35.6478 314.098 32.0631 316.813 33.1104C318.877 33.9068 320.907 31.877 320.11 29.8126C319.063 27.098 322.648 25.0284 324.475 27.2926C325.865 29.0145 328.638 28.2715 328.98 26.0855Z"
        fill="#FF6B9D" />
    <path opacity="0.5"
        d="M11.98 70.0855C12.4304 67.211 16.5696 67.211 17.02 70.0855C17.3624 72.2715 20.1353 73.0145 21.5249 71.2926C23.3522 69.0284 26.9369 71.098 25.8896 73.8126C25.0932 75.877 27.1231 77.9068 29.1874 77.1104C31.902 76.0631 33.9716 79.6478 31.7074 81.4751C29.9855 82.8647 30.7285 85.6376 32.9145 85.98C35.789 86.4304 35.789 90.5696 32.9145 91.02C30.7285 91.3624 29.9855 94.1353 31.7074 95.5249C33.9716 97.3522 31.902 100.937 29.1874 99.8896C27.1231 99.0932 25.0932 101.123 25.8896 103.187C26.9369 105.902 23.3522 107.972 21.5249 105.707C20.1353 103.985 17.3624 104.728 17.02 106.914C16.5696 109.789 12.4304 109.789 11.98 106.914C11.6376 104.728 8.8647 103.985 7.47512 105.707C5.64785 107.972 2.06314 105.902 3.11042 103.187C3.90685 101.123 1.87695 99.0932 -0.187407 99.8896C-2.90201 100.937 -4.97164 97.3522 -2.70737 95.5249C-0.985468 94.1353 -1.72846 91.3624 -3.91446 91.02C-6.78901 90.5696 -6.78901 86.4304 -3.91446 85.98C-1.72846 85.6376 -0.985468 82.8647 -2.70737 81.4751C-4.97164 79.6478 -2.90201 76.0631 -0.187407 77.1104C1.87695 77.9068 3.90685 75.877 3.11042 73.8126C2.06314 71.098 5.64785 69.0284 7.47512 71.2926C8.8647 73.0145 11.6376 72.2715 11.98 70.0855Z"
        fill="#6BB5FF" />
    <path opacity="0.5"
        d="M57.2496 109.748C57.8305 106.04 63.1695 106.04 63.7504 109.748C64.1921 112.568 67.7687 113.526 69.5611 111.305C71.918 108.384 76.5417 111.054 75.1909 114.555C74.1636 117.218 76.7819 119.836 79.4446 118.809C82.9461 117.458 85.6156 122.082 82.695 124.439C80.474 126.231 81.4324 129.808 84.252 130.25C87.9597 130.83 87.9597 136.17 84.252 136.75C81.4324 137.192 80.474 140.769 82.695 142.561C85.6156 144.918 82.9461 149.542 79.4446 148.191C76.7819 147.164 74.1636 149.782 75.1909 152.445C76.5417 155.946 71.918 158.616 69.5611 155.695C67.7687 153.474 64.1921 154.432 63.7504 157.252C63.1695 160.96 57.8305 160.96 57.2496 157.252C56.8079 154.432 53.2313 153.474 51.4389 155.695C49.082 158.616 44.4583 155.946 45.8091 152.445C46.8364 149.782 44.2181 147.164 41.5554 148.191C38.0539 149.542 35.3844 144.918 38.305 142.561C40.526 140.769 39.5676 137.192 36.748 136.75C33.0403 136.17 33.0403 130.83 36.748 130.25C39.5676 129.808 40.526 126.231 38.305 124.439C35.3844 122.082 38.0539 117.458 41.5554 118.809C44.2181 119.836 46.8364 117.218 45.8091 114.555C44.4583 111.054 49.082 108.384 51.4389 111.305C53.2313 113.526 56.8079 112.568 57.2496 109.748Z"
        fill="#FF9C6C" />
    <path opacity="0.5"
        d="M334.932 100.582C335.48 97.0829 340.52 97.0829 341.068 100.582C341.485 103.244 344.86 104.148 346.552 102.052C348.777 99.2954 353.141 101.815 351.866 105.12C350.896 107.633 353.367 110.104 355.88 109.134C359.185 107.859 361.705 112.223 358.948 114.448C356.852 116.14 357.756 119.515 360.418 119.932C363.917 120.48 363.917 125.52 360.418 126.068C357.756 126.485 356.852 129.86 358.948 131.552C361.705 133.777 359.185 138.141 355.88 136.866C353.367 135.896 350.896 138.367 351.866 140.88C353.141 144.185 348.777 146.705 346.552 143.948C344.86 141.852 341.485 142.756 341.068 145.418C340.52 148.917 335.48 148.917 334.932 145.418C334.515 142.756 331.14 141.852 329.448 143.948C327.223 146.705 322.859 144.185 324.134 140.88C325.104 138.367 322.633 135.896 320.12 136.866C316.815 138.141 314.295 133.777 317.052 131.552C319.148 129.86 318.244 126.485 315.582 126.068C312.083 125.52 312.083 120.48 315.582 119.932C318.244 119.515 319.148 116.14 317.052 114.448C314.295 112.223 316.815 107.859 320.12 109.134C322.633 110.104 325.104 107.633 324.134 105.12C322.859 101.815 327.223 99.2954 329.448 102.052C331.14 104.148 334.515 103.244 334.932 100.582Z"
        fill="#FF9C6C" />
    <path opacity="0.5"
        d="M123.904 25.9937C124.1 24.7439 125.9 24.7439 126.096 25.9937C126.245 26.9441 127.45 27.2672 128.054 26.5185C128.849 25.5341 130.407 26.4339 129.952 27.6142C129.606 28.5117 130.488 29.3943 131.386 29.048C132.566 28.5927 133.466 30.1512 132.481 30.9457C131.733 31.5499 132.056 32.7555 133.006 32.9044C134.256 33.1002 134.256 34.8998 133.006 35.0956C132.056 35.2445 131.733 36.4501 132.481 37.0543C133.466 37.8488 132.566 39.4073 131.386 38.952C130.488 38.6057 129.606 39.4883 129.952 40.3858C130.407 41.5661 128.849 42.4659 128.054 41.4815C127.45 40.7328 126.245 41.0559 126.096 42.0063C125.9 43.2561 124.1 43.2561 123.904 42.0063C123.755 41.0559 122.55 40.7328 121.946 41.4815C121.151 42.4659 119.593 41.5661 120.048 40.3858C120.394 39.4883 119.512 38.6057 118.614 38.952C117.434 39.4073 116.534 37.8488 117.519 37.0543C118.267 36.4501 117.944 35.2445 116.994 35.0956C115.744 34.8998 115.744 33.1002 116.994 32.9044C117.944 32.7555 118.267 31.5499 117.519 30.9457C116.534 30.1512 117.434 28.5927 118.614 29.048C119.512 29.3943 120.394 28.5117 120.048 27.6142C119.593 26.4339 121.151 25.5341 121.946 26.5185C122.55 27.2672 123.755 26.9441 123.904 25.9937Z"
        fill="#FFCD05" />
</svg>
