<svg width="113" height="78" viewBox="0 0 113 78" fill="none" xmlns="http://www.w3.org/2000/svg">
    <rect x="21.8457" y="-2" width="98" height="54" rx="8" transform="rotate(18.2045 21.8457 -2)"
        fill="#C4C4C4" />
    <rect x="24.3955" y="3.04932" width="90" height="46" rx="8"
        transform="rotate(18.2045 24.3955 3.04932)" fill="white" />
    <rect x="86.8057" y="30.9429" width="15" height="34" rx="2"
        transform="rotate(18.2045 86.8057 30.9429)" fill="#FF6A6C" />
    <rect x="78.7051" y="28.6582" width="6.49101" height="34" rx="2"
        transform="rotate(18.2045 78.7051 28.6582)" fill="#FF6A6C" />
    <path
        d="M17.472 11.2992C14.1967 10.2221 10.6277 10.4902 7.55016 12.0445C4.47256 13.5988 2.13846 16.312 1.06133 19.5872C-0.0158015 22.8624 0.252268 26.4314 1.80657 29.509C3.36086 32.5866 6.07407 34.9207 9.34931 35.9979L13.4106 23.6485L17.472 11.2992Z"
        fill="#C4C4C4" />
</svg>
