<svg width="101" height="106" viewBox="0 0 101 106" fill="none" xmlns="http://www.w3.org/2000/svg">
    <rect width="101" height="91" rx="8" fill="white" />
    <path d="M87 108L87 91L73 91L87 108Z" fill="white" />
    <path
        d="M67.5132 15.9253C63.0289 16.984 52.5229 24.3421 46.3731 45.3047C38.6858 71.508 16.0083 32.2031 20.6207 26.2478C25.233 20.2925 40.6079 10.3671 41.3766 28.6299C42.1454 46.8928 27.9239 55.2302 27.9239 56.8183C27.9239 58.4064 21.0053 72.302 36.7642 77.8603C42.742 79.9687 48.2773 79.5064 52.9087 77.8603M52.9087 77.8603C60.4869 75.1668 65.6448 69.3038 66.3603 66.3467C67.5132 61.5825 81.3506 17.9104 61.3636 14.3373C41.3766 10.7641 31.3831 12.7492 19.0835 40.5405C6.78379 68.3318 34.4575 72.302 46.3731 65.1556C58.2887 58.0093 77.891 52.054 79.0441 71.5079C80.1972 90.9619 47.1418 73.096 49.0636 56.8183C50.9855 40.5405 61.3634 29.4239 67.5132 36.1733C73.663 42.9226 54.8294 62.3765 41.3766 49.2749C27.9239 36.1733 47.5267 20.2926 66.3603 26.2478C85.1939 32.2031 97.878 50.4659 81.3503 62.3765C64.8226 74.2871 33.689 71.111 32.5359 56.8183C31.3828 42.5256 44.4513 36.1733 58.2884 49.2749C72.1255 62.3765 62.9036 79.4484 52.9087 77.8603Z"
        stroke="#D9D9D9" stroke-width="2" stroke-linecap="round" stroke-linejoin="round" />
</svg>
