<svg width="217" height="84" viewBox="0 0 217 84" fill="none" xmlns="http://www.w3.org/2000/svg">
    <rect width="217" height="68" rx="4" fill="white" />
    <path
        d="M75.9872 16.1719C78.9872 16.1875 81.1591 17.6562 81.1591 19.8906C81.1591 21.9922 79.3387 23.375 76.7216 23.5938V26.3438H82.4247V27.5781H69.6122V26.3438H75.2528V23.5938C72.6512 23.375 70.8309 21.9922 70.8309 19.8906C70.8309 17.6562 73.0028 16.1875 75.9872 16.1719ZM75.9872 17.3906C73.8309 17.375 72.2684 18.375 72.2684 19.8906C72.2684 21.4688 73.8309 22.4375 75.9872 22.4531C78.1591 22.4375 79.7216 21.4688 79.7216 19.8906C79.7216 18.375 78.1591 17.375 75.9872 17.3906ZM94.4172 18.5156V19.7188H84.8078V15.5312H86.2609V18.5156H94.4172ZM95.9172 20.9531V22.1406H83.1047V20.9531H95.9172ZM94.3078 23.2656V26.6875H86.1828V27.9844H94.7922V29.1562H84.6984V25.5938H92.8391V24.4219H84.6672V23.2656H94.3078ZM111.121 15.3281V21H113.371V22.2344H111.121V29.3281H109.652V15.3281H111.121ZM108.433 17.5156V18.7344H100.137V17.5156H103.59V15.5156H105.074V17.5156H108.433ZM104.34 19.7656C106.34 19.7656 107.808 21.1094 107.824 23.0156C107.808 24.9375 106.34 26.2656 104.34 26.2812C102.324 26.2656 100.855 24.9375 100.855 23.0156C100.855 21.1094 102.324 19.7656 104.34 19.7656ZM104.34 20.9844C103.152 20.9844 102.262 21.8125 102.277 23.0156C102.262 24.2344 103.152 25.0469 104.34 25.0312C105.527 25.0469 106.402 24.2344 106.402 23.0156C106.402 21.8125 105.527 20.9844 104.34 20.9844ZM125.004 15.8438V19.6562H116.754V21.2656H125.301V22.4688H115.27V18.5156H123.488V17.0469H115.223V15.8438H125.004ZM126.52 23.7969V24.9844H120.832V29.3594H119.348V24.9844H113.707V23.7969H126.52ZM138.559 19.4219V20.6094H128.918V15.8281H130.387V19.4219H138.559ZM140.028 22.375V23.5625H127.215V22.375H140.028ZM138.653 27.7812V29H128.809V24.8906H130.293V27.7812H138.653ZM143.255 26.9219L142.005 31.2344H140.677L141.505 26.9219H143.255ZM47.8303 40.7344C47.8147 42.3125 49.0959 43.6562 51.2834 44.1562L50.5959 45.3281C48.9319 44.8984 47.7053 44.0078 47.0803 42.7812C46.4475 44.1406 45.1897 45.1719 43.4866 45.6406L42.7522 44.4844C44.9709 43.9062 46.2991 42.4219 46.2991 40.7344V39.9219H47.8303V40.7344ZM54.0959 39.3438V53.3281H52.6272V39.3438H54.0959ZM42.4397 46.7656C45.0491 46.7812 48.5959 46.7344 51.6584 46.3125L51.7678 47.375C50.4866 47.6172 49.1663 47.7656 47.8772 47.8438V52.8906H46.3928V47.9375C45.0413 47.9922 43.76 48 42.6428 48L42.4397 46.7656ZM67.2916 43.4219V44.6094H57.6509V39.8281H59.1197V43.4219H67.2916ZM68.7603 46.375V47.5625H55.9478V46.375H68.7603ZM67.3853 51.7812V53H57.5416V48.8906H59.0259V51.7812H67.3853ZM84.7141 39.3281V53.3281H83.2453V46.0938H80.1047V44.875H83.2453V39.3281H84.7141ZM80.1516 40.8281C80.1359 44.8906 78.5578 48.375 73.8078 50.7344L73.0266 49.5625C76.7375 47.75 78.3859 45.2266 78.6516 42.0156H73.6516V40.8281H80.1516ZM98.6128 39.3281V53.3281H97.1909V39.3281H98.6128ZM95.7691 39.5938V52.6406H94.3472V45.8906H92.7691C92.6441 48.625 91.4722 50.3281 89.7378 50.3125C87.9097 50.3281 86.7222 48.4062 86.7222 45.375C86.7222 42.3438 87.9097 40.4375 89.7378 40.4531C91.4409 40.4375 92.5972 42.0547 92.7691 44.6875H94.3472V39.5938H95.7691ZM89.7378 41.8438C88.7222 41.8438 88.0972 43.1406 88.0972 45.375C88.0972 47.6094 88.7222 48.9062 89.7378 48.9062C90.7691 48.9062 91.4097 47.6094 91.4097 45.375C91.4097 43.1406 90.7691 41.8438 89.7378 41.8438ZM107.168 40.5625V47.0938H100.621V40.5625H107.168ZM102.074 41.7656V45.9219H105.715V41.7656H102.074ZM111.074 39.3125V43.5H113.105V44.75H111.074V49.5781H109.59V39.3125H111.074ZM111.668 51.8281V53.0312H102.199V48.5938H103.683V51.8281H111.668ZM129.934 45.3125V46.5156H117.168V45.3125H122.793V44.0938H118.809V39.7812H128.293V44.0938H124.247V45.3125H129.934ZM120.262 40.9531V42.9219H126.809V40.9531H120.262ZM128.325 47.5312V50.8125H120.168V52.0469H128.715V53.1875H118.715V49.7344H126.856V48.6719H118.7V47.5312H128.325ZM142.286 39.3281V46.8438H140.802V39.3281H142.286ZM134.583 47.5156V49.0938H140.817V47.5156H142.286V53.1562H133.13V47.5156H134.583ZM134.583 51.9375H140.817V50.2656H134.583V51.9375ZM134.692 39.9688C136.833 39.9688 138.411 41.2969 138.411 43.2188C138.411 45.1406 136.833 46.4688 134.692 46.4531C132.552 46.4688 130.958 45.1406 130.958 43.2188C130.958 41.2969 132.552 39.9688 134.692 39.9688ZM134.692 41.2188C133.364 41.2031 132.411 42.0312 132.411 43.2188C132.411 44.4219 133.364 45.2344 134.692 45.2344C136.005 45.2344 136.958 44.4219 136.958 43.2188C136.958 42.0312 136.005 41.2031 134.692 41.2188ZM155.091 39.3281V45H157.341V46.2344H155.091V53.3281H153.622V39.3281H155.091ZM152.403 41.5156V42.7344H144.107V41.5156H147.56V39.5156H149.044V41.5156H152.403ZM148.31 43.7656C150.31 43.7656 151.778 45.1094 151.794 47.0156C151.778 48.9375 150.31 50.2656 148.31 50.2812C146.294 50.2656 144.825 48.9375 144.825 47.0156C144.825 45.1094 146.294 43.7656 148.31 43.7656ZM148.31 44.9844C147.122 44.9844 146.232 45.8125 146.247 47.0156C146.232 48.2344 147.122 49.0469 148.31 49.0312C149.497 49.0469 150.372 48.2344 150.372 47.0156C150.372 45.8125 149.497 44.9844 148.31 44.9844ZM162.568 43.4531C162.568 45.6719 164.021 48.1406 166.146 49.1406L165.302 50.2969C163.732 49.5391 162.49 47.9609 161.865 46.125C161.216 48.1328 159.904 49.8594 158.302 50.6562L157.427 49.4844C159.552 48.4688 161.099 45.8281 161.099 43.4531V41.9688H157.943V40.7344H165.615V41.9688H162.568V43.4531ZM168.599 39.3281V44.875H170.849V46.125H168.599V53.3281H167.115V39.3281H168.599ZM173.779 40.6875L173.638 48.7344H172.092L171.951 40.6875H173.779ZM172.873 52.1094C172.263 52.1094 171.748 51.6094 171.763 51C171.748 50.3906 172.263 49.8906 172.873 49.8906C173.467 49.8906 173.982 50.3906 173.982 51C173.982 51.6094 173.467 52.1094 172.873 52.1094Z"
        fill="#222222" />
    <path d="M169 83.5L162.5 64.5H176.5L169 83.5Z" fill="white" />
</svg>
