<svg width="63" height="64" viewBox="0 0 63 64" fill="none" xmlns="http://www.w3.org/2000/svg">
<g clip-path="url(#clip0_1789_3355)">
<path d="M32 56C45.2548 56 56 45.2548 56 32C56 18.7452 45.2548 8 32 8C18.7452 8 8 18.7452 8 32C8 45.2548 18.7452 56 32 56Z" fill="#37CD9C"/>
<path d="M36.3335 27.6465V31.5293" stroke="#222222"/>
<path d="M40.3335 27V30.8828" stroke="#222222"/>
<path d="M36.3335 32.8242C37.3232 34.5593 40.3914 37.1679 44.7463 33.7217" stroke="#222222"/>
<path d="M33 14C34.6569 14 36 12.6569 36 11C36 9.34315 34.6569 8 33 8C31.3431 8 30 9.34315 30 11C30 12.6569 31.3431 14 33 14Z" fill="#64DCB5"/>
<path d="M43 25C44.6569 25 46 23.6569 46 22C46 20.3431 44.6569 19 43 19C41.3431 19 40 20.3431 40 22C40 23.6569 41.3431 25 43 25Z" fill="#64DCB5"/>
<path d="M19 25C20.6569 25 22 23.6569 22 22C22 20.3431 20.6569 19 19 19C17.3431 19 16 20.3431 16 22C16 23.6569 17.3431 25 19 25Z" fill="#64DCB5"/>
<path d="M9 35C10.6569 35 12 33.6569 12 32C12 30.3431 10.6569 29 9 29C7.34315 29 6 30.3431 6 32C6 33.6569 7.34315 35 9 35Z" fill="#64DCB5"/>
<path d="M31 36C32.6569 36 34 34.6569 34 33C34 31.3431 32.6569 30 31 30C29.3431 30 28 31.3431 28 33C28 34.6569 29.3431 36 31 36Z" fill="#64DCB5"/>
<path d="M55 35C56.6569 35 58 33.6569 58 32C58 30.3431 56.6569 29 55 29C53.3431 29 52 30.3431 52 32C52 33.6569 53.3431 35 55 35Z" fill="#64DCB5"/>
<path d="M43 46C44.6569 46 46 44.6569 46 43C46 41.3431 44.6569 40 43 40C41.3431 40 40 41.3431 40 43C40 44.6569 41.3431 46 43 46Z" fill="#64DCB5"/>
<path d="M21 46C22.6569 46 24 44.6569 24 43C24 41.3431 22.6569 40 21 40C19.3431 40 18 41.3431 18 43C18 44.6569 19.3431 46 21 46Z" fill="#64DCB5"/>
<path d="M32 54C33.6569 54 35 52.6569 35 51C35 49.3431 33.6569 48 32 48C30.3431 48 29 49.3431 29 51C29 52.6569 30.3431 54 32 54Z" fill="#64DCB5"/>
</g>
<defs>
<clipPath id="clip0_1789_3355">
<rect width="48" height="48" fill="white" transform="translate(8 8)"/>
</clipPath>
</defs>
</svg>
