<svg width="65" height="64" viewBox="0 0 65 64" fill="none" xmlns="http://www.w3.org/2000/svg">
<rect x="0.666504" width="64" height="64" rx="8" fill="#F3F3F3"/>
<g clip-path="url(#clip0_2380_3650)">
<path d="M32.6665 56C45.9213 56 56.6665 45.2548 56.6665 32C56.6665 18.7452 45.9213 8 32.6665 8C19.4117 8 8.6665 18.7452 8.6665 32C8.6665 45.2548 19.4117 56 32.6665 56Z" fill="#37CD9C"/>
<path d="M37 27.6465V31.5293" stroke="#222222"/>
<path d="M41 27V30.8828" stroke="#222222"/>
<path d="M37 32.8242C37.9897 34.5593 41.0579 37.1679 45.4128 33.7217" stroke="#222222"/>
<path d="M33.6665 14C35.3234 14 36.6665 12.6569 36.6665 11C36.6665 9.34315 35.3234 8 33.6665 8C32.0096 8 30.6665 9.34315 30.6665 11C30.6665 12.6569 32.0096 14 33.6665 14Z" fill="#64DCB5"/>
<path d="M43.6665 25C45.3234 25 46.6665 23.6569 46.6665 22C46.6665 20.3431 45.3234 19 43.6665 19C42.0096 19 40.6665 20.3431 40.6665 22C40.6665 23.6569 42.0096 25 43.6665 25Z" fill="#64DCB5"/>
<path d="M19.6665 25C21.3234 25 22.6665 23.6569 22.6665 22C22.6665 20.3431 21.3234 19 19.6665 19C18.0096 19 16.6665 20.3431 16.6665 22C16.6665 23.6569 18.0096 25 19.6665 25Z" fill="#64DCB5"/>
<path d="M9.6665 35C11.3234 35 12.6665 33.6569 12.6665 32C12.6665 30.3431 11.3234 29 9.6665 29C8.00965 29 6.6665 30.3431 6.6665 32C6.6665 33.6569 8.00965 35 9.6665 35Z" fill="#64DCB5"/>
<path d="M31.6665 36C33.3234 36 34.6665 34.6569 34.6665 33C34.6665 31.3431 33.3234 30 31.6665 30C30.0096 30 28.6665 31.3431 28.6665 33C28.6665 34.6569 30.0096 36 31.6665 36Z" fill="#64DCB5"/>
<path d="M55.6665 35C57.3234 35 58.6665 33.6569 58.6665 32C58.6665 30.3431 57.3234 29 55.6665 29C54.0096 29 52.6665 30.3431 52.6665 32C52.6665 33.6569 54.0096 35 55.6665 35Z" fill="#64DCB5"/>
<path d="M43.6665 46C45.3234 46 46.6665 44.6569 46.6665 43C46.6665 41.3431 45.3234 40 43.6665 40C42.0096 40 40.6665 41.3431 40.6665 43C40.6665 44.6569 42.0096 46 43.6665 46Z" fill="#64DCB5"/>
<path d="M21.6665 46C23.3234 46 24.6665 44.6569 24.6665 43C24.6665 41.3431 23.3234 40 21.6665 40C20.0096 40 18.6665 41.3431 18.6665 43C18.6665 44.6569 20.0096 46 21.6665 46Z" fill="#64DCB5"/>
<path d="M32.6665 54C34.3234 54 35.6665 52.6569 35.6665 51C35.6665 49.3431 34.3234 48 32.6665 48C31.0096 48 29.6665 49.3431 29.6665 51C29.6665 52.6569 31.0096 54 32.6665 54Z" fill="#64DCB5"/>
</g>
<defs>
<clipPath id="clip0_2380_3650">
<rect width="48" height="48" fill="white" transform="translate(8.6665 8)"/>
</clipPath>
</defs>
</svg>
