<svg width="64" height="64" viewBox="0 0 64 64" fill="none" xmlns="http://www.w3.org/2000/svg">
<rect width="64" height="64" rx="8" fill="#D9D9D9"/>
<path d="M32 55C45.2548 55 56 44.2548 56 31C56 17.7452 45.2548 7 32 7C18.7452 7 8 17.7452 8 31C8 44.2548 18.7452 55 32 55Z" fill="#FF6A6C"/>
<path d="M13.9999 22.5C14.3999 18.9 19.1666 12.6666 21.4999 9.99997C29.4998 5.99997 32.5 8.99997 35.5 11C38.5 13 37.5 14.5 38 21.5C38.4 27.1 32.8333 26.8333 30 26C29 40 19.5 35.5 19 36C18.5 36.5 14.4999 41 12.4999 40C11.0777 39.2889 12.4365 37.0609 13.1607 36.1924C12.2862 36.1231 10.571 33.4289 13.9999 30C17.1998 26.8 17.9999 24.6666 17.9999 24C16.4999 25 13.5999 26.1 13.9999 22.5Z" fill="#F65557"/>
<path d="M28 19.6465V23.5293" stroke="#222222"/>
<path d="M32 19V22.8828" stroke="#222222"/>
<path d="M28 24.8242C28.9897 26.5593 32.0579 29.1679 36.4128 25.7217" stroke="#222222"/>
<path d="M48.4049 43.1853C47.6985 46.2868 43.1326 51.2545 40.9379 53.3507C33.9534 56.0505 31.8066 53.1367 29.555 51.0954C27.3034 49.0541 28.2815 47.8441 28.6064 41.6872C28.8663 36.7617 33.4061 37.5442 35.6435 38.5511C37.9344 26.4349 45.2571 31.2995 45.7199 30.9127C46.1826 30.5258 49.9376 26.9947 51.4737 28.0647C52.566 28.8256 51.217 30.6353 50.5315 31.3215C51.2418 31.4684 52.3663 33.9884 49.1926 36.6415C46.2308 39.1175 45.3502 40.8998 45.2802 41.4814C46.616 40.7571 49.1112 40.0838 48.4049 43.1853Z" fill="#F65557"/>
</svg>
