<svg width="145" height="113" viewBox="0 0 145 113" fill="none" xmlns="http://www.w3.org/2000/svg">
    <g clip-path="url(#clip0_1793_3281)">
        <rect width="145" height="113" rx="12" fill="#37CD9C" />
        <path
            d="M84.5481 48.6443C77.0657 41.1619 77.0657 29.0305 84.5481 21.5481C92.0305 14.0657 104.162 14.0657 111.644 21.5481L140.88 50.7835L113.783 77.8797L84.5481 48.6443Z"
            fill="white" />
        <path
            d="M115.923 21.5479C123.405 14.0654 135.536 14.0655 143.019 21.5479C150.501 29.0303 150.501 41.1617 143.019 48.6441L113.783 77.8795L86.6872 50.7832L115.923 21.5479Z"
            fill="white" />
        <path
            d="M34 46.5H66.5L69.8494 34L77.218 61.5L87.0329 44.5H112L120.5 59.2224L128 31.2321L131.555 44.5H151.5"
            stroke="#37CD9C" stroke-width="2" />
        <path
            d="M24.1875 84.3438V94.6562H22.7031V89.7969H19.7969V88.5625H22.7031V84.3438H24.1875ZM19.8906 85.3906C19.875 89.0469 17.3594 91.7969 13.3438 93.0938L12.7188 91.9062C15.8359 90.8984 17.9531 88.9922 18.2656 86.625H13.4375V85.3906H19.8906ZM24.5469 96.8281V98.0312H15.1719V93.5938H16.6719V96.8281H24.5469ZM37.0238 84.3281V87.8594H39.055V89.0625H37.0238V92.6406H35.5394V84.3281H37.0238ZM33.18 85.3281C33.18 88.9531 30.7269 91.5625 26.6175 92.75L26.0081 91.5469C29.2816 90.6172 31.305 88.7969 31.5706 86.5312H26.6331V85.3281H33.18ZM32.555 92.7969C35.3831 92.7969 37.18 93.8438 37.18 95.5469C37.18 97.2656 35.3831 98.3125 32.555 98.3125C29.7425 98.3125 27.8988 97.2656 27.9144 95.5469C27.8988 93.8438 29.7425 92.7969 32.555 92.7969ZM32.555 93.9688C30.6019 93.9688 29.3675 94.5625 29.3831 95.5469C29.3675 96.5312 30.6019 97.1406 32.555 97.1406C34.4925 97.1406 35.7269 96.5312 35.7269 95.5469C35.7269 94.5625 34.4925 93.9688 32.555 93.9688ZM46.5163 92.6406C45.7975 92.6406 45.2194 92.0625 45.2194 91.3438C45.2194 90.625 45.7975 90.0469 46.5163 90.0469C47.235 90.0469 47.8131 90.625 47.8131 91.3438C47.8131 92.0625 47.235 92.6406 46.5163 92.6406ZM67.0088 91.3438V92.5469H61.4619V95.2656H59.9619V92.5469H54.1963V91.3438H67.0088ZM65.5869 96.8125V98.0312H55.8056V93.9219H57.29V96.8125H65.5869ZM60.5869 84.6562C63.6025 84.6562 65.5556 85.75 65.5556 87.5C65.5556 89.25 63.6025 90.3281 60.5869 90.3281C57.5869 90.3281 55.6025 89.25 55.6025 87.5C55.6025 85.75 57.5869 84.6562 60.5869 84.6562ZM60.5869 85.8438C58.54 85.8438 57.1806 86.4688 57.1963 87.5C57.1806 88.5156 58.54 89.125 60.5869 89.125C62.6494 89.125 63.9931 88.5156 63.9931 87.5C63.9931 86.4688 62.6494 85.8438 60.5869 85.8438ZM80.5013 91.1406V92.3281H67.72V91.1406H73.3919V89.6562H69.3138V84.9688H78.9231V86.1406H70.7825V88.4688H79.0169V89.6562H74.8294V91.1406H80.5013ZM74.095 93.2344C77.1106 93.2344 78.9231 94.1562 78.9231 95.7812C78.9231 97.4062 77.1106 98.3125 74.095 98.3281C71.0638 98.3125 69.2356 97.4062 69.2356 95.7812C69.2356 94.1562 71.0638 93.2344 74.095 93.2344ZM74.095 94.3906C71.9544 94.3906 70.7356 94.8906 70.7356 95.7812C70.7356 96.6719 71.9544 97.1719 74.095 97.1562C76.2044 97.1719 77.4388 96.6719 77.4388 95.7812C77.4388 94.8906 76.2044 94.3906 74.095 94.3906Z"
            fill="#222222" />
    </g>
    <defs>
        <clipPath id="clip0_1793_3281">
            <rect width="145" height="113" fill="white" />
        </clipPath>
    </defs>
</svg>
