<svg width="145" height="113" viewBox="0 0 145 113" fill="none" xmlns="http://www.w3.org/2000/svg">
    <g clip-path="url(#clip0_1793_3283)">
        <rect width="145" height="113" rx="12" fill="#6BB5FF" />
        <circle cx="114.909" cy="24.4657" r="8.46578" fill="white" />
        <rect x="104" y="35" width="22" height="30" rx="5.20971" fill="white" />
        <rect width="10.8331" height="30.8732" rx="5.20971"
            transform="matrix(0.883098 0.469188 -0.568286 0.822831 107.057 34.1571)" fill="white" />
        <rect width="10.7112" height="31.5397" rx="5.20971"
            transform="matrix(-0.883098 0.469188 0.568286 0.822831 123.717 33.6089)" fill="white" />
        <rect width="11.0592" height="29.4435" rx="5.20971"
            transform="matrix(-0.25954 0.965732 0.965732 0.25954 85.8701 65.4921)" fill="white" />
        <rect x="144.355" y="65.4921" width="11.0592" height="31.0216" rx="5.20971"
            transform="rotate(74.9573 144.355 65.4921)" fill="white" />
        <path
            d="M19.5938 85.7188V94.8125H13.0469V85.7188H19.5938ZM14.5 86.8906V93.6094H18.125V86.8906H14.5ZM23.4219 84.3281V89.8125H25.6719V91.0625H23.4219V98.3281H21.9375V84.3281H23.4219ZM32.3988 84.625C35.4769 84.625 37.3988 85.625 37.3988 87.3125C37.3988 88.9688 35.4769 89.9531 32.3988 89.9531C29.3363 89.9531 27.3988 88.9688 27.3988 87.3125C27.3988 85.625 29.3363 84.625 32.3988 84.625ZM32.3988 85.7969C30.2425 85.7969 28.9144 86.3438 28.93 87.3125C28.9144 88.25 30.2425 88.7812 32.3988 88.7969C34.5394 88.7812 35.8675 88.25 35.8675 87.3125C35.8675 86.3438 34.5394 85.7969 32.3988 85.7969ZM37.2269 93.4844V98.1562H27.555V93.4844H37.2269ZM29.0238 94.6719V96.9531H35.7894V94.6719H29.0238ZM38.7894 91.0312V92.2344H26.0238V91.0312H38.7894ZM54.79 84.3281V92.6562H53.3056V89.1094H50.6963V87.8906H53.3056V84.3281H54.79ZM50.1025 93.0469C53.04 93.0469 54.8369 94.0156 54.8369 95.6875C54.8369 97.3594 53.04 98.3125 50.1025 98.3281C47.165 98.3125 45.3525 97.3594 45.3681 95.6875C45.3525 94.0156 47.165 93.0469 50.1025 93.0469ZM50.1025 94.2031C48.0556 94.2031 46.8369 94.7344 46.8369 95.6875C46.8369 96.625 48.0556 97.1719 50.1025 97.1562C52.1494 97.1719 53.3681 96.625 53.3681 95.6875C53.3681 94.7344 52.1494 94.2031 50.1025 94.2031ZM48.1338 86.7969C48.1338 88.5781 49.3994 90.2969 51.5088 91.0156L50.7431 92.1875C49.1728 91.6406 48.0166 90.5234 47.415 89.1406C46.7978 90.7109 45.5713 91.9688 43.8994 92.5781L43.1181 91.3906C45.29 90.6406 46.6181 88.75 46.6181 86.8125V86.5H43.5869V85.2969H51.1338V86.5H48.1338V86.7969ZM68.2513 84.3281V98.3594H66.7669V84.3281H68.2513ZM63.97 85.5938V90.7031H58.9388V93.7656C61.2044 93.7578 63.1888 93.6562 65.5325 93.2656L65.6731 94.4844C63.1888 94.9062 61.0794 95 58.6106 95H57.4231V89.5156H62.4544V86.7969H57.4075V85.5938H63.97Z"
            fill="#222222" />
    </g>
    <defs>
        <clipPath id="clip0_1793_3283">
            <rect width="145" height="113" fill="white" />
        </clipPath>
    </defs>
</svg>
