<svg width="145" height="113" viewBox="0 0 145 113" fill="none" xmlns="http://www.w3.org/2000/svg">
<g clip-path="url(#clip0_1793_3284)">
<rect width="145" height="113" rx="12" fill="#FF9C6C"/>
<ellipse cx="127.657" cy="65.8911" rx="13.7715" ry="3.44288" fill="white"/>
<ellipse cx="94.8576" cy="56.2857" rx="8.57143" ry="2.14286" fill="white"/>
<ellipse cx="120.772" cy="42.938" rx="13.7715" ry="3.44288" fill="white"/>
<ellipse cx="90.5714" cy="41.9995" rx="8.57143" ry="2.14286" fill="white"/>
<ellipse cx="127.657" cy="17.6909" rx="13.7715" ry="3.44288" fill="white"/>
<ellipse cx="127.657" cy="80.8104" rx="13.7715" ry="2.29525" fill="white"/>
<ellipse cx="94.8576" cy="65.5714" rx="8.57143" ry="1.42857" fill="white"/>
<ellipse cx="120.772" cy="57.8573" rx="13.7715" ry="2.29525" fill="white"/>
<ellipse cx="90.5714" cy="51.2853" rx="8.57143" ry="1.42857" fill="white"/>
<ellipse cx="127.657" cy="32.6102" rx="13.7715" ry="2.29525" fill="white"/>
<ellipse cx="127.657" cy="7.36215" rx="13.7715" ry="2.29525" fill="white"/>
<rect x="113.886" y="71.6289" width="27.5431" height="9.18102" fill="white"/>
<rect x="86.2861" y="59.8567" width="17.1429" height="5.71429" fill="white"/>
<rect x="107" y="48.6763" width="27.5431" height="9.18102" fill="white"/>
<rect x="82" y="45.571" width="17.1429" height="5.71429" fill="white"/>
<rect x="113.886" y="23.4282" width="27.5431" height="9.18102" fill="white"/>
<rect x="113.886" y="-1.81885" width="27.5431" height="9.18102" fill="white"/>
<path d="M24.6094 84.3281V98.3281H23.1875V91.1406H21.5156V97.6406H20.1094V84.5938H21.5156V89.8906H23.1875V84.3281H24.6094ZM16.7656 88.0312C16.7656 90.5469 17.7188 92.8281 19.75 93.875L18.875 95.0156C17.5 94.2734 16.5781 92.9688 16.0781 91.3438C15.6016 93.1875 14.6719 94.6562 13.25 95.5L12.3281 94.375C14.375 93.2188 15.3281 90.8125 15.3281 88.0312V87.125H12.7031V85.9219H19.2031V87.125H16.7656V88.0312ZM37.6956 84.3281V92.6562H36.2113V89.1094H33.6019V87.8906H36.2113V84.3281H37.6956ZM33.0081 93.0469C35.9456 93.0469 37.7425 94.0156 37.7425 95.6875C37.7425 97.3594 35.9456 98.3125 33.0081 98.3281C30.0706 98.3125 28.2581 97.3594 28.2738 95.6875C28.2581 94.0156 30.0706 93.0469 33.0081 93.0469ZM33.0081 94.2031C30.9613 94.2031 29.7425 94.7344 29.7425 95.6875C29.7425 96.625 30.9613 97.1719 33.0081 97.1562C35.055 97.1719 36.2738 96.625 36.2738 95.6875C36.2738 94.7344 35.055 94.2031 33.0081 94.2031ZM31.0394 86.7969C31.0394 88.5781 32.305 90.2969 34.4144 91.0156L33.6488 92.1875C32.0784 91.6406 30.9222 90.5234 30.3206 89.1406C29.7034 90.7109 28.4769 91.9688 26.805 92.5781L26.0238 91.3906C28.1956 90.6406 29.5238 88.75 29.5238 86.8125V86.5H26.4925V85.2969H34.0394V86.5H31.0394V86.7969ZM50.915 85.3906V86.1719C50.8994 87.1094 50.8994 88.5 50.5556 90.3125L49.0869 90.1719C49.3916 88.6172 49.4384 87.4922 49.4619 86.6094H43.8525V85.3906H50.915ZM47.3369 88.5312V91.4219C48.8369 91.375 50.3838 91.2656 51.79 91.0625L51.8838 92.1406C48.9619 92.6562 45.6181 92.7031 43.1494 92.7188L43.0088 91.5156C43.8681 91.5078 44.8447 91.5 45.8681 91.4688V88.5312H47.3369ZM54.1963 84.3281V88.7812H56.1181V90.0312H54.1963V94.8438H52.6806V84.3281H54.1963ZM54.6494 96.8281V98.0312H45.1338V93.8906H46.6181V96.8281H54.6494ZM68.2513 84.3281V98.3594H66.7669V84.3281H68.2513ZM63.97 85.5938V90.7031H58.9388V93.7656C61.2044 93.7578 63.1888 93.6562 65.5325 93.2656L65.6731 94.4844C63.1888 94.9062 61.0794 95 58.6106 95H57.4231V89.5156H62.4544V86.7969H57.4075V85.5938H63.97Z" fill="#222222"/>
</g>
<defs>
<clipPath id="clip0_1793_3284">
<rect width="145" height="113" rx="12" fill="white"/>
</clipPath>
</defs>
</svg>
