<svg width="145" height="113" viewBox="0 0 145 113" fill="none" xmlns="http://www.w3.org/2000/svg">
    <g clip-path="url(#clip0_1793_3282)">
        <rect width="145" height="113" rx="12" fill="#FF6B9D" />
        <path d="M59 35.2222L100.111 18L149 38.5556L107.889 56.3333L59 35.2222Z" fill="white" />
        <path d="M59.5557 35.2222L107.889 63.5555V84.6666L59.5557 56.3333V35.2222Z" fill="white" />
        <path d="M112.333 59.1112L149 41.3334V59.1112L112.333 76.8889V59.1112Z" fill="white" />
        <path
            d="M17.3906 88.4531C17.3906 90.6719 18.8438 93.1406 20.9688 94.1406L20.125 95.2969C18.5547 94.5391 17.3125 92.9609 16.6875 91.125C16.0391 93.1328 14.7266 94.8594 13.125 95.6562L12.25 94.4844C14.375 93.4688 15.9219 90.8281 15.9219 88.4531V86.9688H12.7656V85.7344H20.4375V86.9688H17.3906V88.4531ZM23.4219 84.3281V89.875H25.6719V91.125H23.4219V98.3281H21.9375V84.3281H23.4219ZM37.6644 84.3281V98.3281H36.1644V84.3281H37.6644ZM33.4925 85.8281C33.4925 89.9219 31.7425 93.4844 26.9456 95.7812L26.1644 94.5781C29.8909 92.8047 31.7034 90.2812 31.9925 87.0156H26.8363V85.8281H33.4925ZM51.5631 84.3281V98.3281H50.1569V84.3281H51.5631ZM48.7038 84.6875V97.6406H47.2975V92.875H44.9069V91.6562H47.2975V89.375H45.1413C44.4616 91.7266 42.9694 93.7656 40.3288 95.3438L39.4538 94.2812C42.4225 92.5156 43.8522 90.1641 44.11 87.2812H40.1413V86.0625H45.5788C45.5788 86.7812 45.5241 87.4766 45.4069 88.1562H47.2975V84.6875H48.7038ZM55.04 84.9219V86.8281H58.7119V84.9219H60.1806V91.0312H53.5869V84.9219H55.04ZM55.04 89.8438H58.7119V87.9688H55.04V89.8438ZM64.04 84.3281V87.2656H66.0713V88.4688H64.04V91.5312H62.5556V84.3281H64.04ZM64.04 92.1406V95.6719H56.4775V97H64.5244V98.1875H55.0244V94.5781H62.5713V93.3125H54.9931V92.1406H64.04Z"
            fill="#222222" />
    </g>
    <defs>
        <clipPath id="clip0_1793_3282">
            <rect width="145" height="113" fill="white" />
        </clipPath>
    </defs>
</svg>
