<svg width="145" height="113" viewBox="0 0 145 113" fill="none" xmlns="http://www.w3.org/2000/svg">
    <g clip-path="url(#clip0_1793_3285)">
        <rect width="145" height="113" rx="12" fill="#FF6A6C" />
        <circle cx="85" cy="10" r="25" fill="white" />
        <circle cx="134.5" cy="32.5" r="14.5" fill="white" />
        <circle cx="105.5" cy="61.5" r="14.5" fill="white" />
        <path d="M95.5 18L129 26.9761L108.202 63" stroke="white" />
        <path
            d="M20.3125 85.3906V86.1719C20.2969 87.1094 20.2969 88.5 19.9531 90.3125L18.4844 90.1719C18.7891 88.6172 18.8359 87.4922 18.8594 86.6094H13.25V85.3906H20.3125ZM16.7344 88.5312V91.4219C18.2344 91.375 19.7812 91.2656 21.1875 91.0625L21.2812 92.1406C18.3594 92.6562 15.0156 92.7031 12.5469 92.7188L12.4062 91.5156C13.2656 91.5078 14.2422 91.5 15.2656 91.4688V88.5312H16.7344ZM23.5938 84.3281V88.7812H25.5156V90.0312H23.5938V94.8438H22.0781V84.3281H23.5938ZM24.0469 96.8281V98.0312H14.5312V93.8906H16.0156V96.8281H24.0469ZM38.055 84.3281V98.3281H36.6488V84.3281H38.055ZM35.1956 84.6875V97.6406H33.7894V92.875H31.3988V91.6562H33.7894V89.375H31.6331C30.9534 91.7266 29.4613 93.7656 26.8206 95.3438L25.9456 94.2812C28.9144 92.5156 30.3441 90.1641 30.6019 87.2812H26.6331V86.0625H32.0706C32.0706 86.7812 32.0159 87.4766 31.8988 88.1562H33.7894V84.6875H35.1956ZM46.5163 92.6406C45.7975 92.6406 45.2194 92.0625 45.2194 91.3438C45.2194 90.625 45.7975 90.0469 46.5163 90.0469C47.235 90.0469 47.8131 90.625 47.8131 91.3438C47.8131 92.0625 47.235 92.6406 46.5163 92.6406ZM67.0244 95.3281V96.5469H54.2119V95.3281H59.8213V92H61.29V95.3281H67.0244ZM61.3213 86.2812C61.3213 88.5 63.7588 90.5781 66.4619 91.0312L65.8213 92.25C63.5556 91.7969 61.4697 90.3984 60.54 88.4688C59.6181 90.3906 57.5556 91.8125 55.3056 92.25L54.6494 91.0312C57.3369 90.5781 59.7588 88.5 59.7588 86.2812V85.2188H61.3213V86.2812ZM79.3919 84.3281V91.6562H77.9075V89.3125H75.2825V88.1406H77.9075V86.8125H75.2825V85.6562H77.9075V84.3281H79.3919ZM79.3919 92.2656V95.7031H71.72V96.9844H79.8763V98.1562H70.2669V94.6094H77.9231V93.4375H70.2356V92.2656H79.3919ZM72.6419 86.0938C72.6419 87.9062 73.9231 89.6406 76.0325 90.3438L75.2513 91.4844C73.6888 90.9297 72.5169 89.7969 71.9231 88.375C71.3059 89.9062 70.095 91.1328 68.47 91.7188L67.6888 90.5625C69.845 89.8438 71.1575 88.0156 71.1731 86.0938V84.6875H72.6419V86.0938Z"
            fill="#222222" />
    </g>
    <defs>
        <clipPath id="clip0_1793_3285">
            <rect width="145" height="113" fill="white" />
        </clipPath>
    </defs>
</svg>
