<svg width="24" height="24" viewBox="0 0 24 24" fill="none" xmlns="http://www.w3.org/2000/svg">
    <rect width="24" height="24" rx="12" fill="white" />
    <path fill-rule="evenodd" clip-rule="evenodd"
        d="M18.6301 12.1591C18.6301 11.6627 18.5856 11.1854 18.5028 10.7273H11.9102V13.435H15.6774C15.5151 14.31 15.022 15.0514 14.2806 15.5477V17.3041H16.5429C17.8665 16.0854 18.6301 14.2909 18.6301 12.1591Z"
        fill="#4285F4" />
    <path fill-rule="evenodd" clip-rule="evenodd"
        d="M11.9107 18.9998C13.8007 18.9998 15.3852 18.373 16.5434 17.3039L14.2812 15.5475C13.6543 15.9675 12.8525 16.2157 11.9107 16.2157C10.0875 16.2157 8.54435 14.9844 7.9939 13.3298H5.65527V15.1435C6.80709 17.4312 9.17435 18.9998 11.9107 18.9998Z"
        fill="#34A853" />
    <path fill-rule="evenodd" clip-rule="evenodd"
        d="M7.99332 13.33C7.85332 12.91 7.77378 12.4614 7.77378 12C7.77378 11.5386 7.85332 11.09 7.99332 10.67V8.85638H5.6547C5.18061 9.80138 4.91016 10.8705 4.91016 12C4.91016 13.1295 5.18061 14.1986 5.6547 15.1436L7.99332 13.33Z"
        fill="#FBBC05" />
    <path fill-rule="evenodd" clip-rule="evenodd"
        d="M11.9107 7.78407C12.9384 7.78407 13.8612 8.13726 14.5866 8.83089L16.5943 6.82317C15.382 5.69364 13.7975 5 11.9107 5C9.17435 5 6.80709 6.56863 5.65527 8.85634L7.9939 10.67C8.54435 9.01544 10.0875 7.78407 11.9107 7.78407Z"
        fill="#EA4335" />
</svg>
