<svg width="24" height="24" viewBox="0 0 24 24" fill="none" xmlns="http://www.w3.org/2000/svg">
    <g clip-path="url(#clip0_1510_2681)">
        <path
            d="M12 24C18.6274 24 24 18.6274 24 12C24 5.37258 18.6274 0 12 0C5.37258 0 0 5.37258 0 12C0 18.6274 5.37258 24 12 24Z"
            fill="#FEE500" />
        <path
            d="M12.0343 5.79156C8.30089 5.79156 5.29004 8.20022 5.29004 11.1244C5.29004 13.0224 6.54255 14.6844 8.42132 15.6334L7.78543 18.0084C7.77344 18.0439 7.7716 18.0822 7.78011 18.1187C7.78862 18.1553 7.80714 18.1889 7.83361 18.2155C7.8722 18.2495 7.92186 18.2683 7.97331 18.2685C8.01597 18.2651 8.05645 18.2482 8.08892 18.2203L10.8252 16.3753C11.2291 16.431 11.6362 16.4599 12.044 16.462C15.7727 16.462 18.7883 14.0533 18.7883 11.1244C18.7883 8.1954 15.7629 5.79156 12.0343 5.79156Z"
            fill="#222222" />
        <path
            d="M7.65044 10.2813H6.91337C6.82203 10.2839 6.7318 10.2605 6.65324 10.2138C6.61836 10.192 6.58838 10.1631 6.56517 10.1291C6.54195 10.0952 6.52601 10.0567 6.51836 10.0163C6.51602 9.99067 6.51602 9.9649 6.51836 9.93927C6.51606 9.8913 6.52538 9.84345 6.5455 9.79984C6.56564 9.75624 6.59597 9.71814 6.63396 9.68876C6.71795 9.62793 6.81933 9.5958 6.92301 9.5972H9.14381C9.23589 9.59396 9.32673 9.61921 9.40395 9.66946C9.43965 9.69036 9.47027 9.71893 9.4936 9.75309C9.51692 9.78724 9.53237 9.82615 9.53884 9.867C9.54119 9.89102 9.54119 9.91524 9.53884 9.93927C9.54111 9.98793 9.53182 10.0364 9.51172 10.0808C9.49162 10.1252 9.4613 10.1642 9.42322 10.1945C9.34128 10.2553 9.24089 10.286 9.13899 10.2813H8.42603V12.8153C8.42892 12.8692 8.42057 12.9232 8.40149 12.9738C8.38242 13.0243 8.35305 13.0704 8.31522 13.109C8.27896 13.146 8.23538 13.1749 8.18724 13.194C8.13912 13.2131 8.08755 13.222 8.03582 13.2199C7.94535 13.2224 7.85679 13.1935 7.78532 13.138C7.71726 13.0837 7.67109 13.0068 7.65525 12.9212C7.65048 12.8861 7.65048 12.8504 7.65525 12.8153L7.65044 10.2813Z"
            fill="#FEE500" />
        <path
            d="M9.75138 9.78502C9.77257 9.70574 9.82232 9.63709 9.89108 9.59231C9.96434 9.55079 10.0478 9.53075 10.1319 9.5345H10.315C10.4043 9.5313 10.4927 9.55298 10.5703 9.59713C10.6526 9.65246 10.7111 9.73673 10.7341 9.83317L11.6976 12.555C11.7226 12.626 11.7435 12.6984 11.7602 12.7718C11.7619 12.8023 11.7619 12.8328 11.7602 12.8633C11.7618 12.9103 11.7532 12.957 11.7349 13.0003C11.7166 13.0435 11.6891 13.0823 11.6542 13.1138C11.6205 13.1484 11.58 13.1757 11.5352 13.194C11.4905 13.2121 11.4424 13.221 11.3941 13.2198C11.3198 13.2272 11.2452 13.2093 11.1822 13.1691C11.1193 13.1289 11.0718 13.0687 11.0472 12.9983L10.8449 12.4057H9.57795L9.37562 12.9983C9.35169 13.0701 9.30356 13.1316 9.23943 13.1719C9.17532 13.2123 9.09916 13.2293 9.02396 13.2198C8.94249 13.2219 8.8627 13.1965 8.79754 13.1475C8.73405 13.097 8.69121 13.0251 8.6771 12.9452C8.67454 12.918 8.67454 12.8905 8.6771 12.8633C8.66883 12.8155 8.66883 12.7667 8.6771 12.7188C8.6771 12.6659 8.71083 12.608 8.73009 12.555L9.75138 9.78502ZM10.2331 10.4161L9.77546 11.8613H10.6859L10.2331 10.4161Z"
            fill="#FEE500" />
        <path
            d="M11.8705 9.93935C11.8656 9.83123 11.9037 9.7256 11.9765 9.6455C12.0135 9.60818 12.0579 9.57902 12.1069 9.55994C12.1558 9.54084 12.2083 9.53222 12.2607 9.53464C12.351 9.5336 12.439 9.56241 12.5113 9.61656C12.5781 9.67307 12.6226 9.75167 12.6364 9.83814C12.6412 9.8717 12.6412 9.90579 12.6364 9.93935V12.4733H13.9612C14.053 12.4721 14.1434 12.4971 14.2214 12.5455C14.2564 12.5671 14.2866 12.5959 14.3098 12.6299C14.3331 12.664 14.349 12.7025 14.3563 12.7431C14.3563 12.7431 14.3563 12.7912 14.3563 12.8153C14.3586 12.8633 14.3492 12.9111 14.3292 12.9546C14.309 12.9983 14.2786 13.0365 14.2407 13.0659C14.1567 13.1266 14.0553 13.1587 13.9516 13.1573H12.3234C12.2197 13.164 12.1166 13.137 12.0295 13.0803C11.9516 13.0221 11.8997 12.9355 11.885 12.8394C11.8815 12.7865 11.8815 12.7333 11.885 12.6804L11.8705 9.93935Z"
            fill="#FEE500" />
        <path
            d="M14.4436 9.93943C14.4407 9.83163 14.4785 9.72672 14.5495 9.64557C14.6218 9.57997 14.7144 9.54122 14.8118 9.53595C14.9092 9.53069 15.0054 9.5592 15.0842 9.61664C15.1526 9.67266 15.1988 9.75122 15.2143 9.83822C15.2167 9.8719 15.2167 9.90574 15.2143 9.93943V11.1197L16.4332 9.71296C16.4801 9.66498 16.53 9.61997 16.5824 9.57812C16.632 9.54866 16.6888 9.5336 16.7462 9.53473C16.8305 9.53426 16.9128 9.55948 16.9823 9.60699C17.015 9.62905 17.043 9.65751 17.0646 9.69062C17.0861 9.72373 17.1007 9.76082 17.1076 9.7997C17.1095 9.80924 17.1095 9.81909 17.1076 9.82863C17.1053 9.83975 17.1053 9.85121 17.1076 9.86233C17.1074 9.91301 17.0941 9.96283 17.069 10.0069C17.0435 10.0535 17.0128 10.0971 16.9775 10.1369L16.1778 11.0137L17.1413 12.507V12.5552C17.1913 12.6242 17.2303 12.7007 17.257 12.7817V12.8057C17.2625 12.8616 17.2544 12.9179 17.2334 12.97C17.2124 13.0219 17.1792 13.0681 17.1365 13.1044C17.0561 13.1652 16.9578 13.1974 16.8571 13.1959C16.7902 13.1987 16.7237 13.1837 16.6644 13.1526C16.6002 13.1095 16.5474 13.0517 16.5102 12.984L15.6142 11.5388L15.1854 11.9868V12.7913C15.1883 12.899 15.1505 13.0039 15.0794 13.0852C15.0414 13.1224 14.9962 13.1514 14.9464 13.1705C14.8967 13.1894 14.8436 13.1982 14.7905 13.1959C14.7016 13.1978 14.6148 13.1689 14.5447 13.1141C14.4767 13.0598 14.4305 12.9828 14.4146 12.8972C14.41 12.8621 14.41 12.8264 14.4146 12.7913L14.4436 9.93943Z"
            fill="#FEE500" />
    </g>
    <defs>
        <clipPath id="clip0_1510_2681">
            <rect width="24" height="24" fill="white" />
        </clipPath>
    </defs>
</svg>
